<?xml version="1.0" standalone="no"?>
<!DOCTYPE svg PUBLIC "-//W3C//DTD SVG 1.1//EN" "http://www.w3.org/Graphics/SVG/1.1/DTD/svg11.dtd" >
<svg xmlns="http://www.w3.org/2000/svg">
<metadata>Generated by IcoMoon</metadata>
<defs>
<font id="icon" horiz-adv-x="1024">
<font-face units-per-em="1024" ascent="960" descent="-64" />
<missing-glyph horiz-adv-x="1024" />
<glyph unicode="&#x20;" horiz-adv-x="512" d="" />
<glyph unicode="&#xe900;" glyph-name="accordion" d="M512 823.156c-207.593 0-375.156-167.564-375.156-375.156s167.564-375.156 375.156-375.156c207.593 0 375.156 167.564 375.156 375.156s-167.564 375.156-375.156 375.156zM512-17.455c-256.931 0-465.455 208.524-465.455 465.455s208.524 465.455 465.455 465.455c256.931 0 465.455-208.524 465.455-465.455s-208.524-465.455-465.455-465.455zM709.353 574.604l72.611-72.611-271.825-270.895-272.756 270.895 72.611 72.611 200.145-199.215 199.215 199.215z" />
<glyph unicode="&#xe901;" glyph-name="answer" d="M465.455 685.382l-143.36-402.153h87.505l26.996 82.851h148.015l26.065-82.851h91.229l-141.498 402.153h-94.953zM459.869 434.967l52.131 158.255 51.2-158.255h-103.331zM512 874.356c-245.76 0-465.455-163.84-465.455-388.189 0-79.127 28.858-157.324 79.127-217.833 1.862-70.749-40.029-173.149-77.265-246.691 100.538 18.618 244.829 58.647 309.062 98.676 54.924-13.033 107.985-19.549 157.324-19.549 274.618 0 461.731 188.044 461.731 386.327 0.931 225.28-220.625 387.258-464.524 387.258zM515.724 178.036c-75.404 0-131.258 15.825-170.356 25.135-39.098-24.204-61.44-40.029-165.702-70.749 20.48 53.062 27.927 106.124 23.273 165.702-32.582 39.098-78.196 93.091-78.196 188.975-0.931 170.356 173.149 309.993 387.258 309.993s388.189-139.636 388.189-310.924c0-189.905-200.145-308.131-384.465-308.131z" />
<glyph unicode="&#xe902;" glyph-name="arrow-bottom" d="M853.644 742.167l123.811-124.742-465.455-463.593-465.455 463.593 123.811 124.742 341.644-339.782z" />
<glyph unicode="&#xe903;" glyph-name="arrow-left" d="M806.167 106.356l-124.742-123.811-463.593 465.455 463.593 465.455 124.742-123.811-339.782-341.644z" />
<glyph unicode="&#xe904;" glyph-name="arrow-right" d="M217.833 789.644l124.742 123.811 463.593-465.455-463.593-465.455-124.742 123.811 339.782 341.644z" />
<glyph unicode="&#xe905;" glyph-name="arrow-top" d="M853.644 191.069l123.811 124.742-465.455 463.593-465.455-463.593 123.811-124.742 341.644 339.782z" />
<glyph unicode="&#xe906;" glyph-name="autumn" d="M498.036 910.662c-4.655 0-15.825 2.793-15.825-15.825 0.931-72.611 7.447-134.982 4.655-156.393-4.655-28.858-28.858-14.895-36.305 53.993-6.516 54.924-10.24 67.025-12.102 97.745-0.931 20.48-20.48 12.102-26.996 10.24-129.396-30.72-380.742-158.255-326.749-510.138 95.884 19.549 484.073 0 493.382-404.945l43.753 7.447c-130.327 384.465 228.073 535.273 324.887 549.236-63.302 315.578-299.753 371.433-448.698 368.64z" />
<glyph unicode="&#xe907;" glyph-name="baby-bottle" d="M645.12 689.105c-40.029 40.029-93.091 61.44-148.945 61.44s-108.916-22.342-148.945-61.44l-239.244-239.244c-81.92-81.92-81.92-215.971 0-297.891l107.985-107.985c40.029-40.029 93.091-61.44 148.945-61.44s108.916 22.342 148.945 61.44l239.244 239.244c40.029 40.029 61.44 93.091 61.44 148.945s-22.342 108.916-61.44 148.945l-107.985 107.985zM721.455 359.564l-96.815 96.815c-13.964 13.964-36.305 13.964-50.269 0s-13.964-36.305 0-51.2l100.538-100.538-56.785-56.785-101.469 101.469c-13.964 13.964-36.305 13.964-50.269 0s-13.964-36.305 0-50.269l100.538-100.538-56.785-56.785-100.538 99.607c-13.964 13.964-36.305 13.964-50.269 0s-13.964-36.305 0-50.269l99.607-99.607c-53.062-48.407-140.567-47.476-191.767 3.724l-107.985 107.985c-53.993 53.993-53.993 142.429 0 196.422l239.244 239.244c26.065 26.065 61.44 40.96 98.676 40.96s71.68-14.895 98.676-40.96l107.985-107.985c26.065-26.065 40.96-61.44 40.96-98.676-1.862-26.065-9.309-51.2-23.273-72.611zM928.116 772.887c-12.102-12.102-9.309-35.375-4.655-42.822 27.927-44.684 22.342-85.644-18.618-126.604l-41.891-41.891c-18.618-18.618-60.509 26.065-113.571 79.127l-44.684 44.684c-53.062 53.062-98.676 94.022-79.127 113.571l41.891 41.891c40.96 40.96 80.989 46.545 125.673 19.549 8.378-4.655 31.651-8.378 43.753 3.724s39.098 39.098 39.098 39.098c16.756 16.756 38.167 11.171 55.855-6.516l29.789-29.789c16.756-16.756 23.273-38.167 6.516-55.855-0.931 0.931-27.927-26.996-40.029-38.167z" />
<glyph unicode="&#xe908;" glyph-name="bag" d="M900.189 564.364v-59.578c-18.618-26.996-148.015-76.335-378.88-76.335-242.036 0-377.949 53.062-396.567 80.989v54.924c-0.931 0 775.447 0 775.447 0zM977.455 641.629h-930.909v-134.982c0-103.331 238.313-155.462 474.764-155.462 229.935 0 456.145 49.338 456.145 150.807v139.636zM900.189 328.844v-190.836h-776.378v193.629c-31.651 13.033-57.716 27.927-77.265 42.822v-313.716h930.909v308.131c-22.342-15.825-49.338-28.858-77.265-40.029zM589.265 252.509c0-41.891-34.444-76.335-77.265-76.335s-77.265 34.444-77.265 76.335v40.029h155.462v-40.029h-0.931zM395.636 836.189c-42.822 0-77.265-34.444-77.265-77.265v-78.196h77.265v57.716c0 10.24 8.378 19.549 19.549 19.549h193.629c11.171 0 19.549-8.378 19.549-19.549v-57.716h77.265v77.265c0 42.822-34.444 77.265-77.265 77.265h-232.727v0.931z" />
<glyph unicode="&#xe909;" glyph-name="beauty" d="M977.455 350.255c0-53.062-42.822-95.884-95.884-95.884-116.364 0-157.324 163.84 35.375 309.993-1.862-92.16 60.509-128.465 60.509-214.109zM885.295 485.236c-13.033-7.447-33.513-26.996-36.305-52.131-4.655-37.236 33.513-47.476 37.236 1.862 1.862 20.48 0 30.72-0.931 50.269zM678.633 597.876c-48.407-47.476-67.025-100.538-75.404-149.876h-446.836c69.818 120.087 177.804 120.087 235.52 121.949 69.818 2.793 156.393 7.447 231.796 82.851l45.615 45.615-54.924 54.924-45.615-45.615c-118.225-118.225-266.24 8.378-431.011-157.324-60.509-59.578-91.229-139.636-91.229-218.764 0-171.287 138.705-309.993 309.993-309.993 79.127 0 159.185 30.72 219.695 91.229 164.771 163.84 38.167 311.855 157.324 430.080l45.615 45.615-54.924 54.924-45.615-45.615zM888.087 698.415l-163.84 164.771c-7.447 7.447-17.687 11.171-27.927 11.171-34.444 0-52.131-41.891-26.996-66.095l164.771-164.771c24.204-24.204 66.095-6.516 66.095 26.996 0 11.171-3.724 20.48-12.102 27.927z" />
<glyph unicode="&#xe90a;" glyph-name="bed" d="M46.545 284.16v-81.92c0-14.895 12.102-26.996 26.996-26.996h26.996v-81.92c0-14.895 12.102-26.996 26.996-26.996s26.996 12.102 26.996 26.996v81.92h713.076v-81.92c0-14.895 12.102-26.996 26.996-26.996s26.996 12.102 26.996 26.996v81.92h26.996c14.895 0 26.996 12.102 26.996 26.996v81.92h-929.047zM731.695 665.833h-164.771c-14.895 0-26.996-12.102-26.996-26.996v-81.92h219.695v81.92c0 14.895-13.033 26.996-27.927 26.996zM457.076 665.833h-164.771c-14.895 0-26.996-12.102-26.996-26.996v-81.92h219.695v81.92c0 14.895-12.102 26.996-27.927 26.996zM786.618 829.673h-549.236c-75.404 0-135.913-61.44-135.913-135.913v-135.913h108.916v81.92c0 44.684 36.305 81.92 81.92 81.92h165.702c21.411 0 40.029-8.378 54.924-21.411 14.895 13.033 33.513 21.411 54.924 21.411h165.702c44.684 0 81.92-36.305 81.92-81.92v-81.92h108.916v135.913c-1.862 74.473-62.371 135.913-137.775 135.913zM895.535 502.924h-767.069c-45.615 0-81.92-36.305-81.92-81.92v-81.92h930.909v81.92c0 44.684-36.305 81.92-81.92 81.92z" />
<glyph unicode="&#xe90b;" glyph-name="boat" d="M970.007 381.905c-14.895-1.862-48.407-4.655-48.407-4.655-6.516 0-11.171 4.655-11.171 11.171v269.964c0 6.516-5.585 12.102-13.033 12.102h-13.033c-6.516 0-13.033-5.585-13.033-12.102v-269.964c0-6.516-5.585-12.102-12.102-12.102-13.033 0-26.065 0-39.098 0-6.516 0.931-11.171 5.585-11.171 12.102v157.324c0 6.516-5.585 12.102-13.033 12.102h-44.684c-6.516 0-12.102 5.585-12.102 12.102v87.505c0 6.516-5.585 12.102-13.033 12.102h-13.033c-6.516 0-13.033-5.585-13.033-12.102v-86.575c0-6.516-5.585-12.102-13.033-13.033h-97.745c-6.516 0-16.756-4.655-21.411-9.309l-48.407-53.062c-4.655-4.655-2.793-9.309 4.655-9.309h163.84c6.516 0 13.033-5.585 13.033-12.102v-12.102c0-6.516-5.585-12.102-13.033-12.102h-197.353c-6.516 0-16.756-4.655-21.411-9.309l-25.135-27.927c-4.655-5.585-13.033-8.378-20.48-7.447-174.080 19.549-325.818 41.891-368.64 48.407-15.825 1.862-4.655-10.24-4.655-10.24 45.615-41.891 106.124-144.291 106.124-144.291 50.269-76.335 20.48-73.542 155.462-73.542 32.582 0 516.655 0 516.655 0 74.473 0 63.302-4.655 79.127 52.131 1.862 4.655 6.516 10.24 10.24 10.24l24.204 5.585c4.655 0.931 5.585 4.655 5.585 4.655 4.655 13.033 19.549 52.131 27.927 75.404 4.655 10.24-5.585 8.378-5.585 8.378z" />
<glyph unicode="&#xe90c;" glyph-name="bus" d="M286.72 358.633c43.753 0 79.127-35.375 79.127-79.127s-35.375-79.127-79.127-79.127-79.127 35.375-79.127 79.127 35.375 79.127 79.127 79.127zM750.313 358.633c43.753 0 79.127-35.375 79.127-79.127s-35.375-79.127-79.127-79.127-79.127 35.375-79.127 79.127 35.375 79.127 79.127 79.127zM286.72 358.633c43.753 0 79.127-35.375 79.127-79.127s-35.375-79.127-79.127-79.127-79.127 35.375-79.127 79.127 35.375 79.127 79.127 79.127zM750.313 358.633c43.753 0 79.127-35.375 79.127-79.127s-35.375-79.127-79.127-79.127-79.127 35.375-79.127 79.127 35.375 79.127 79.127 79.127zM46.545 309.295c0-25.135 20.48-44.684 44.684-44.684h108.916c-0.931 4.655-0.931 10.24-0.931 14.895 0 48.407 39.098 87.505 87.505 87.505s87.505-39.098 87.505-87.505c0-4.655 0-10.24-0.931-14.895h290.444c-0.931 4.655-0.931 10.24-0.931 14.895 0 48.407 39.098 87.505 87.505 87.505s87.505-39.098 87.505-87.505c0-4.655 0-10.24-0.931-14.895h95.884c25.135 0 44.684 20.48 44.684 44.684v353.745c0 17.687-13.964 32.582-32.582 32.582h-865.745c-18.618 0-32.582-14.895-32.582-32.582v-353.745zM92.16 659.316h67.956c8.378 0 15.825-7.447 15.825-15.825v-136.844c0-8.378-7.447-15.825-15.825-15.825h-67.956c-8.378 0-15.825 7.447-15.825 15.825v136.844c0 8.378 7.447 15.825 15.825 15.825zM244.829 659.316h67.956c8.378 0 15.825-7.447 15.825-15.825v-100.538c0-8.378-7.447-15.825-15.825-15.825h-67.956c-8.378 0-15.825 7.447-15.825 15.825v100.538c0 8.378 6.516 15.825 15.825 15.825zM393.775 659.316h67.956c8.378 0 15.825-7.447 15.825-15.825v-100.538c0-8.378-7.447-15.825-15.825-15.825h-67.956c-8.378 0-15.825 7.447-15.825 15.825v100.538c0 8.378 7.447 15.825 15.825 15.825zM546.444 659.316h67.956c8.378 0 15.825-7.447 15.825-15.825v-100.538c0-8.378-7.447-15.825-15.825-15.825h-67.956c-8.378 0-15.825 7.447-15.825 15.825v100.538c0 8.378 6.516 15.825 15.825 15.825zM698.182 659.316h67.956c8.378 0 15.825-7.447 15.825-15.825v-100.538c0-8.378-7.447-15.825-15.825-15.825h-67.956c-8.378 0-15.825 7.447-15.825 15.825v100.538c0 8.378 7.447 15.825 15.825 15.825zM850.851 659.316h67.956c8.378 0 15.825-7.447 15.825-15.825v-100.538c0-8.378-7.447-15.825-15.825-15.825h-67.956c-8.378 0-15.825 7.447-15.825 15.825v100.538c0 8.378 7.447 15.825 15.825 15.825z" />
<glyph unicode="&#xe90d;" glyph-name="calendar" d="M288.582 913.455c5.585 0 11.171 0 16.756 0 34.444-13.033 28.858-37.236 28.858-91.229 0-45.615 2.793-81.92-28.858-87.505-51.2-7.447-44.684 45.615-44.684 89.367 0 45.615-5.585 79.127 27.927 89.367zM719.593 913.455c5.585 0 11.171 0 16.756 0 13.033-5.585 21.411-12.102 25.135-26.996 5.585-20.48 4.655-115.433 0-129.396-3.724-11.171-18.618-20.48-26.996-21.411-45.615-6.516-43.753 39.098-43.753 83.782-0.931 49.338-6.516 82.851 28.858 94.022zM977.455 747.753c0-223.418 0-446.836 0-671.185-10.24-53.062-41.891-84.713-94.953-94.953-247.622 0-494.313 0-741.935 0-53.062 10.24-84.713 41.891-94.953 94.953 0 223.418 0 446.836 0 671.185 12.102 78.196 82.851 106.124 179.665 93.091-0.931-50.269-4.655-95.884 18.618-120.087 42.822-45.615 115.433-14.895 123.811 36.305 3.724 25.135-4.655 54.924 1.862 85.644 94.953-0.931 193.629 2.793 285.789-1.862-5.585-75.404 1.862-137.775 65.164-141.498 28.858-1.862 61.44 14.895 72.611 43.753 10.24 26.996-1.862 67.025 5.585 99.607 100.538 9.309 165.702-16.756 178.735-94.953zM117.295 585.775c0-133.12 0-260.655 0-398.429 0-37.236-8.378-105.193 11.171-123.811 13.964-13.964 55.855-11.171 87.505-11.171 205.731 0 388.189 0 589.265 0 31.651 0 74.473-2.793 89.367 9.309 19.549 15.825 13.033 90.298 13.033 127.535 0 141.498 0 267.171 0 400.291-257.862 4.655-524.102 0.931-785.687 1.862-2.793-0.931-4.655-1.862-4.655-5.585zM653.498 484.305c9.309-53.993-13.033-92.16-28.858-131.258-30.72-74.473-65.164-150.807-94.953-227.142-40.96 0-82.851 0-123.811 0 43.753 93.091 89.367 183.389 134.982 274.618-57.716 0-115.433 0-173.149 0 0.931 26.996-2.793 59.578 1.862 83.782 94.953 0 189.905 0 283.927 0z" />
<glyph unicode="&#xe90e;" glyph-name="car" d="M977.455 322.327h-66.095c0.931-4.655 0.931-8.378 0.931-13.033 0-49.338-40.029-89.367-89.367-89.367-49.338 0.931-89.367 40.96-89.367 89.367 0 4.655 0 8.378 0.931 13.033h-441.251c0.931-4.655 0.931-8.378 0.931-13.033 0-49.338-40.029-89.367-89.367-89.367-49.338 0.931-89.367 40.96-89.367 89.367 0 4.655 0 8.378 0.931 13.033h-69.818v155.462c0 23.273 18.618 42.822 42.822 42.822h235.52l57.716 167.564h289.513c0 0 142.429-6.516 164.771-167.564h96.815c24.204 0 43.753-19.549 43.753-42.822v-155.462zM759.622 515.956c0 83.782-76.335 129.396-76.335 129.396h-251.345l-30.72-129.396c0 0 358.4 0 358.4 0z" />
<glyph unicode="&#xe90f;" glyph-name="check" d="M841.542 816.64l-448.698-448.698-193.629 194.56-144.291-144.291 337.92-338.851 592.989 592.989z" />
<glyph unicode="&#xe910;" glyph-name="clock" d="M762.415 358.633h-314.647v347.229h101.469v-244.829h213.178v-102.4zM512 811.985c-201.076 0-363.985-162.909-363.985-363.985s162.909-363.985 363.985-363.985 363.985 162.909 363.985 363.985-162.909 363.985-363.985 363.985zM512 913.455c256.931 0 465.455-208.524 465.455-465.455s-208.524-465.455-465.455-465.455-465.455 208.524-465.455 465.455 208.524 465.455 465.455 465.455z" />
<glyph unicode="&#xe911;" glyph-name="close" d="M977.455 145.455l-302.545 302.545 302.545 302.545-162.909 162.909-302.545-302.545-302.545 302.545-162.909-162.909 302.545-302.545-302.545-302.545 162.909-162.909 302.545 302.545 302.545-302.545z" />
<glyph unicode="&#xe912;" glyph-name="cloudy-day" d="M139.636 448h-93.091v77.265h93.091v-77.265zM434.735 698.415v137.775h-77.265v-137.775h77.265zM248.553 664.902l-83.782 83.782-54.924-54.924 83.782-83.782 54.924 54.924zM615.331 757.062l-81.92-81.92 54.924-54.924 81.92 81.92c0 0-54.924 54.924-54.924 54.924zM161.978 334.429l-85.644-74.473 50.269-58.647 85.644 74.473-50.269 58.647zM977.455 226.444c0-91.229-75.404-165.702-168.495-165.702h-399.36c-93.091 0-168.495 74.473-168.495 165.702 0 29.789 8.378 57.716 22.342 81.92-37.236 35.375-61.44 84.713-61.44 139.636 0 107.055 86.575 193.629 193.629 193.629 51.2 0 97.745-20.48 132.189-53.062 25.135 9.309 52.131 14.895 80.989 14.895 122.88 0 223.418-94.953 229.935-214.109 79.127-13.964 138.705-81.92 138.705-162.909zM279.273 448c0-33.513 13.964-63.302 37.236-83.782 18.618 12.102 40.029 21.411 63.302 25.135 3.724 62.371 32.582 118.225 77.265 157.324-17.687 11.171-38.167 18.618-61.44 18.618-64.233-0.931-116.364-53.062-116.364-117.295zM900.189 226.444c0 80.989-76.335 101.469-134.982 97.745 8.378 55.855-9.309 202.007-155.462 202.007-149.876 0-157.324-149.876-155.462-202.007-54.924 2.793-135.913-15.825-135.913-97.745 0-48.407 40.96-88.436 91.229-88.436h399.36c50.269 0 91.229 39.098 91.229 88.436z" />
<glyph unicode="&#xe913;" glyph-name="cloudy" d="M838.749 466.618c-6.516 125.673-117.295 224.349-249.484 213.178-41.891 48.407-104.262 78.196-174.080 78.196-122.88 0-223.418-94.953-229.935-214.109-79.127-13.033-138.705-80.989-138.705-162.909 0-91.229 75.404-165.702 168.495-165.702h51.2c29.789-46.545 82.851-77.265 142.429-77.265h399.36c93.091 0 168.495 74.473 168.495 165.702 0.931 80.989-58.647 148.945-137.775 162.909zM241.105 292.538h-26.065c-50.269 0-91.229 40.029-91.229 88.436 0 81.92 81.92 100.538 134.982 97.745-0.931 52.131 5.585 202.007 156.393 202.007 37.236 0 66.095-9.309 88.436-25.135-70.749-35.375-120.087-106.124-124.742-188.975-78.196-13.964-143.36-81.92-137.775-174.080zM808.96 215.273h-399.36c-50.269 0-91.229 40.029-91.229 88.436 0 81.92 81.92 100.538 134.982 97.745-1.862 53.062 5.585 202.007 155.462 202.007 146.153 0 163.84-146.153 155.462-202.007 58.647 3.724 134.982-16.756 134.982-97.745 0.931-48.407-40.029-88.436-90.298-88.436z" />
<glyph unicode="&#xe914;" glyph-name="contact" d="M46.545 797.091v-698.182h930.909v698.182h-930.909zM881.571 719.825l-369.571-299.753-369.571 299.753h739.142zM123.811 176.175v458.938l388.189-314.647 388.189 314.647v-458.007l-776.378-0.931z" />
<glyph unicode="&#xe915;" glyph-name="country" d="M554.822 590.429c0 0 0.931 2.793 1.862 2.793s0 0 0.931 0 0.931 0.931 1.862 0.931c0.931 0 1.862-0.931 2.793-0.931s0.931 0.931 1.862 0.931c0.931 0 0.931 0 1.862 0s0.931 0.931 1.862 0.931 0.931 0 1.862 0h0.931c0.931 0 0.931 0 0.931-0.931s-0.931-1.862-1.862-3.724c0-0.931 0.931-0.931 0.931-1.862-0.931-1.862-1.862-2.793-1.862-2.793-0.931 0-0.931 0-0.931 0-0.931 0-0.931 0.931-1.862 1.862 0 0-0.931 0-0.931 0.931-0.931 0.931-5.585 2.793-6.516 2.793-1.862-0.931-2.793-0.931-3.724-0.931 0.931 0 0.931 0 0 0 0.931 0 0 0 0 0zM474.764 704.931v0 0c0-0.931 0-0.931 0-0.931s0 0 0 0.931c0.931-0.931 0.931 0 1.862 0 0 0 0 0.931 0.931 0.931h0.931c0-0.931 0-1.862-0.931-2.793-0.931 0-0.931-0.931-0.931-0.931v-0.931c0 0 0.931-0.931 0.931 0v0 0c0-0.931 0-0.931 1.862 0v0 0l0.931-0.931c0.931 0 0.931-0.931 0.931-0.931v0 0c0-1.862 0-2.793-0.931-3.724s-2.793-1.862-3.724-0.931v0h-0.931v-0.931c0 0 0 0 0-0.931s-0.931-0.931-1.862-0.931v0 0 0 0c0.931 0 0.931 0.931 1.862 0.931s0-2.793 0-2.793-2.793-0.931-3.724-1.862c-0.931 0-0.931 0-0.931 0s0-0.931 0-1.862c0.931-0.931 1.862 0 3.724 0v0c0.931 0 1.862-0.931 2.793-1.862v0h1.862c0 0 0 0 0.931 0v-0.931c-0.931-0.931-1.862-0.931-2.793-0.931s-0.931 0-1.862 0c-1.862 0-3.724-0.931-4.655-2.793 0 0-0.931-0.931-1.862-0.931v-0.931h0.931c0 0 0 0 0.931 0 0.931 0.931 1.862 0.931 2.793 0v0 0c0.931 0.931 1.862 2.793 2.793 2.793s1.862-0.931 2.793-0.931 2.793 0.931 3.724 0.931c0.931 0 1.862 0 1.862-0.931 0 0 0 0 2.793 0 0.931 0 1.862-0.931 2.793-0.931s1.862 0 2.793 0v0 0c0 0 2.793 0.931 2.793 1.862v0 0c-0.931 0.931-1.862 1.862-1.862 2.793v0 0 0h0.931c0.931 0.931 1.862 0.931 1.862 1.862 0 0 0.931 0.931 0.931 1.862 0 0 0 1.862-1.862 2.793v0c0 0-3.724 1.862-4.655 0.931-0.931 0-0.931 0-1.862 0v0c0.931 0.931 0.931 0.931 0.931 0.931 0 0.931 0 0.931-0.931 1.862v0.931c0 0-0.931 2.793-0.931 3.724v0c-0.931 0-0.931 0-1.862 0v0 0 0c0 0.931-0.931 0.931-0.931 1.862s0 0.931 0 1.862 0 0.931 0 1.862c-0.931 1.862-0.931 4.655 0 7.447 0 0.931 0.931 1.862 1.862 2.793 0.931 1.862-4.655 1.862-5.585 1.862v0 0c0 0 0 0.931 0.931 0.931 0.931 0.931 0.931 0.931 1.862 0.931 0.931 0.931 0 0.931 0 1.862-0.931 0-2.793 0-3.724 0 0 0-0.931 0-1.862 0l-0.931-0.931c-0.931-0.931-1.862-1.862-2.793-2.793v0h-0.931c0 0 0 0-0.931 0v0c0 0-0.931 0-0.931-0.931v-0.931h0.931c0 0 0-0.931-0.931-1.862v0 0c0 0 0 0-0.931 0v0c-0.931 0-0.931-1.862-0.931-1.862v0c4.655-2.793 4.655-3.724 3.724-5.585zM977.455 448c0-256.931-208.524-465.455-465.455-465.455s-465.455 208.524-465.455 465.455 208.524 465.455 465.455 465.455 465.455-208.524 465.455-465.455zM649.775 648.145c0 0.931 1.862 0.931 1.862 2.793 0 0.931 0 0.931-0.931 1.862-0.931 0-0.931 0-1.862 0s-0.931-0.931-1.862-0.931-0.931 0-0.931 0.931v0.931c-0.931 0-2.793 0.931-3.724 0.931-1.862 0-3.724 0-4.655 0s-0.931-0.931-1.862-1.862-0.931-3.724-1.862-3.724-1.862-2.793-2.793-4.655c0-0.931-0.931-0.931-0.931-1.862v0c0 0-0.931-4.655 0-4.655 0-0.931 0.931-1.862 0-2.793 0-0.931-1.862-0.931-1.862-1.862v0c0-1.862 0-3.724 0-4.655v0 0 0c-0.931 0.931-0.931 0-0.931 0s0 0 0-0.931v0l1.862-2.793c1.862-2.793 3.724-4.655 6.516-5.585v0c1.862-0.931 2.793 0 4.655 0s3.724 0 4.655 0 1.862 0 2.793 0.931c0.931 0 0.931 0.931 0.931 0.931v0c0 0 0 0 1.862 1.862 0.931 0.931 2.793 1.862 4.655 2.793 1.862 1.862 5.585 0 7.447 0.931 0.931 0 8.378-2.793 8.378-2.793v0c1.862-0.931 8.378-0.931 10.24-1.862 0.931 0 1.862 0 2.793 0v0c0.931 0.931 1.862 2.793 3.724 1.862 2.793-1.862 11.171 0 9.309 6.516-0.931 3.724-5.585 5.585-7.447 6.516-4.655 1.862-7.447 5.585-11.171 7.447-1.862 0.931-3.724 0-5.585 0.931-3.724 1.862-3.724 1.862-3.724 2.793v0c0.931 1.862 1.862 2.793 2.793 4.655v0c0 0.931 0 0.931 0 1.862-0.931 0.931-2.793 0-2.793 1.862 0 0.931 2.793 2.793 3.724 2.793 0.931 0.931 0.931 0.931 0.931 1.862s-0.931 1.862-0.931 1.862c-0.931 0-4.655-1.862-4.655-1.862v0 0 0l-7.447-4.655c-0.931-0.931-1.862-2.793-1.862-4.655s0.931-2.793 2.793-3.724c0.931 0 1.862-0.931 0.931-0.931v0l-4.655-4.655c-0.931 0-1.862 0-1.862 0.931v0c-0.931 1.862-1.862 3.724-4.655 3.724-1.862 0-1.862 0.931-1.862 0.931zM884.364 448c0 38.167-6.516 77.265-13.033 97.745-1.862 6.516-7.447 11.171-13.033 13.964-6.516 2.793-13.033 1.862-19.549-1.862-14.895-8.378-14.895-9.309-19.549-9.309-2.793 0-13.033-7.447-16.756 0.931-0.931 1.862-4.655 8.378-9.309-0.931-0.931-2.793-9.309-0.931-11.171 0.931-7.447 3.724-16.756 13.964-19.549 16.756v0 0c-2.793 2.793-10.24-0.931-4.655-9.309 18.618-26.996 21.411-26.996 26.996-29.789v0c2.793 1.862 1.862 2.793 5.585 2.793 1.862 0 3.724 1.862 4.655 3.724v0c0.931 1.862 2.793 3.724 4.655 3.724s4.655 0 6.516-1.862v0c2.793-2.793 7.447 0 10.24-1.862 8.378-3.724 5.585-12.102 3.724-21.411v0 0c-0.931 0-1.862 0-1.862-0.931 0-2.793 1.862-5.585 0.931-9.309v0c-0.931-0.931-1.862-0.931-2.793-1.862-2.793-2.793-2.793-5.585-4.655-8.378s0-9.309-4.655-9.309c-1.862 0-8.378-3.724-9.309-7.447-0.931-4.655-3.724-9.309-7.447-12.102-2.793-1.862-6.516-5.585-11.171-9.309-2.793-1.862-12.102-13.033-20.48-14.895-0.931 0-2.793 0-2.793 0.931v0c-5.585 8.378-6.516 19.549-11.171 27.927-5.585 11.171-19.549 13.964-23.273 26.065-3.724 10.24-4.655 14.895-9.309 16.756-3.724 1.862-5.585 4.655-7.447 7.447-3.724 4.655-8.378 12.102-12.102 15.825-1.862 1.862-2.793 3.724-3.724 6.516 0 0.931-1.862 0.931-1.862 0 0-3.724 0.931-5.585-0.931-6.516-0.931-0.931-1.862 0-2.793 0.931-2.793 2.793-7.447 8.378-8.378 11.171v0c0-0.931 0-2.793 0.931-3.724 6.516-9.309 37.236-53.062 38.167-57.716 4.655-27.927 26.996-34.444 37.236-44.684 1.862-1.862 3.724-4.655 3.724-7.447s1.862-4.655 3.724-6.516c1.862-1.862 3.724-1.862 15.825 0 1.862 0 2.793 1.862 4.655 2.793 0.931 0.931 10.24 4.655 11.171 5.585 2.793 1.862-0.931 0.931 5.585 3.724 1.862 0.931 4.655 7.447 4.655 0 0-1.862 0.931-3.724 0.931-5.585-0.931-12.102-1.862-13.964-2.793-15.825-0.931-2.793-1.862-5.585-2.793-9.309-3.724-13.964-9.309-29.789-18.618-40.96 0 0 0 0-0.931-0.931-5.585-4.655-14.895-13.964-23.273-29.789-4.655-9.309-12.102-18.618-17.687-27.927-1.862-3.724-1.862-3.724-0.931-8.378 0.931-2.793 4.655-17.687 4.655-36.305 0.931-20.48-2.793-23.273-9.309-27.927-10.24-7.447-17.687-13.033-22.342-15.825-5.585-3.724-9.309-11.171-9.309-17.687 0-2.793-0.931-5.585-2.793-10.24v0c0-0.931-13.033-7.447-18.618-13.033v0 0c2.793-10.24-37.236-39.098-45.615-39.098-6.516 0-21.411-1.862-27.927-5.585-4.655-1.862-17.687 2.793-18.618 4.655 0 0 0 0.931 0 1.862 2.793 2.793-7.447 18.618-10.24 19.549-1.862 0.931-4.655 8.378-5.585 10.24-3.724 5.585 2.793 13.033-1.862 18.618l-0.931 0.931-13.033 17.687c-1.862 2.793-7.447 5.585-7.447 9.309v0c0 3.724 6.516 21.411 7.447 22.342s0.931 1.862 1.862 2.793c0 0.931 0.931 0.931 1.862 1.862 2.793 1.862 7.447 5.585 2.793 13.964 0 0.931 0-1.862-1.862 10.24-0.931 7.447-11.171 26.065-13.033 26.996 0 0-12.102 5.585-17.687 16.756 0 0.931 0.931 0.931 0.931 1.862 4.655 3.724 3.724 9.309 5.585 19.549 0 0.931 0 0.931 0 1.862v0 0.931c0 1.862 0.931 4.655-1.862 9.309-0.931 0.931-1.862 0.931-1.862 0.931v0c-1.862 0-2.793 0.931-2.793 2.793v0 0c-2.793 0.931-4.655 0.931-7.447 0-5.585-1.862-16.756-3.724-17.687 3.724-1.862 10.24-8.378 12.102-12.102 12.102-13.964-0.931-26.065-13.033-40.96-12.102-0.931 0-1.862 0-1.862 0.931-13.033 4.655-26.065 4.655-39.098 7.447-4.655 0.931-10.24 2.793-13.964 6.516l-17.687 17.687c-0.931 0.931-1.862 2.793-2.793 3.724-5.585 8.378-7.447 27.927-9.309 31.651 0 0.931 0 0.931-0.931 1.862l-1.862 2.793c-4.655 5.585-5.585 13.033-3.724 19.549l7.447 23.273v0.931c0 0.931 0 1.862 0 1.862 1.862 12.102-0.931 15.825-1.862 18.618-1.862 3.724-1.862 3.724 8.378 17.687 18.618 26.065 21.411 26.996 25.135 28.858v0 0c8.378-0.931 23.273 9.309 23.273 13.964 0 1.862 0 5.585 2.793 10.24 0.931 1.862 2.793 3.724 4.655 4.655l16.756 13.964c2.793 2.793 7.447 2.793 11.171 0.931v0c1.862 0.931 4.655 0.931 6.516 0 2.793-0.931 4.655 0 5.585 0 10.24 4.655 21.411 6.516 72.611 9.309 1.862 0 3.724-0.931 4.655-1.862v0c2.793-3.724 0.931-3.724 3.724-9.309 0.931-1.862 0-3.724-3.724-8.378-4.655 0-4.655-2.793-3.724-2.793 1.862 0 4.655-0.931 7.447-2.793 3.724-1.862 9.309-3.724 13.964-5.585 4.655-0.931 8.378-3.724 11.171-7.447 1.862-1.862 26.996-17.687 26.065 2.793 0 1.862 0.931 3.724 3.724 5.585 8.378 6.516 13.964-1.862 16.756-2.793 3.724-0.931 3.724-0.931 6.516-0.931v0 0c1.862 0 3.724-2.793 10.24-1.862 12.102 0.931 25.135-0.931 37.236 0.931 0.931 0 3.724 0.931 4.655 1.862 13.964 11.171 0 25.135 1.862 38.167v0 0 0c-4.655 0-8.378-1.862-11.171-4.655-0.931-0.931-2.793-1.862-4.655-1.862-3.724 0-6.516 1.862-9.309 2.793-1.862 0.931-2.793 0-3.724-1.862v0c-0.931-2.793-13.964-0.931-18.618 5.585-0.931 1.862-2.793 3.724-5.585 4.655v0 0c3.724 3.724-1.862 6.516-2.793 9.309 0 1.862 0 2.793 1.862 3.724v0c3.724 0.931 4.655 2.793 3.724 2.793-0.931-0.931-2.793-1.862-4.655-1.862v0c-0.931 0-1.862 0-2.793 0.931-1.862 0.931-3.724 1.862-6.516 1.862s-5.585-0.931-5.585-3.724c0-0.931 0-0.931-0.931-0.931v0h-0.931c-0.931 0-0.931 0-1.862 0s-0.931-0.931-0.931-1.862 6.516-4.655 0.931-6.516v0c0 0-1.862-0.931-2.793-0.931-1.862-0.931-4.655 0.931-6.516 0.931-0.931 0-0.931 0-1.862 0v0h-0.931c0 0-1.862 1.862-2.793 2.793s-0.931 0.931-0.931 1.862l-0.931 0.931c-0.931 0.931-1.862 1.862-1.862 2.793v0c0 0.931 0 1.862 0 3.724 0 2.793-1.862 5.585-4.655 8.378-0.931 0.931-1.862 0.931-1.862 0.931s-0.931 0-1.862 0c-1.862 0.931-3.724 1.862-3.724 1.862v0l-16.756 12.102c-0.931 0.931-1.862 0.931-2.793 0.931s-1.862 0.931-1.862 1.862-2.793 2.793-4.655 1.862v0c-0.931 0-1.862-1.862-0.931-2.793 0-0.931 0.931-0.931 0.931-1.862l9.309-13.964c1.862-1.862 3.724-3.724 7.447-3.724 0.931 0 1.862-0.931 1.862-1.862s0-0.931 0.931-0.931c4.655-2.793 10.24-2.793 13.964-8.378v0 0 0-1.862c0-0.931-1.862-0.931-1.862-0.931v0.931c0 0 0 0 0 0.931s-1.862 1.862-2.793 1.862c-1.862 0.931-3.724 0-4.655-1.862v0 0c-0.931-1.862 0.931-2.793 0.931-2.793 0.931-0.931 2.793-0.931 1.862-3.724 0-0.931-0.931-0.931-1.862-0.931 0 0 0 0-1.862-3.724-0.931-0.931 0-1.862-1.862-2.793s-1.862 0-1.862 0.931c-0.931 0.931 0 1.862 0 2.793 0 0 0 0.931 0.931 1.862 1.862 0.931 0 3.724-0.931 5.585v0c-1.862 3.724-0.931 0.931-3.724 2.793-1.862 1.862-5.585 3.724-6.516 5.585-5.585 6.516-14.895 10.24-19.549 17.687-0.931 1.862-2.793 2.793-3.724 3.724s-2.793 0.931-3.724 0.931c-1.862 0-8.378-3.724-13.033-6.516s-8.378 3.724-13.964 1.862-1.862-9.309-6.516-11.171c-4.655-2.793-11.171-3.724-15.825-8.378 0 0 0 0 0-0.931-0.931-2.793-3.724-4.655-3.724-5.585s0-0.931 0-1.862c0.931-1.862 0-3.724-1.862-5.585v0c-0.931-0.931 0-3.724-0.931-3.724-1.862-0.931-3.724 0-5.585 0-2.793-0.931-2.793-3.724-5.585-4.655s-6.516 0.931-9.309 0c-5.585-1.862-5.585-1.862-5.585-1.862 0-0.931-0.931-1.862-1.862-1.862-3.724 0-2.793 4.655-4.655 6.516s-2.793 1.862-3.724 1.862c-0.931-0.931-2.793-1.862-3.724-0.931s-1.862 0.931-2.793 1.862c-0.931 0-0.931 0.931-1.862 0.931-0.931 0.931 0.931 5.585 0.931 6.516s0 1.862 0 1.862-0.931 1.862-1.862 1.862v0c-0.931 0.931 3.724 5.585 4.655 7.447 0 0 0 0.931 0.931 0.931 3.724 9.309 3.724 13.033 2.793 15.825 0 1.862 0.931 2.793 1.862 2.793s1.862 0 2.793 0v0c1.862 1.862 3.724 1.862 6.516 0.931 2.793-1.862 8.378-3.724 18.618-3.724 2.793 0 4.655-0.931 7.447-1.862 1.862-0.931 3.724 0.931 4.655 1.862 1.862 2.793 1.862 5.585 1.862 8.378 0 1.862 0.931 2.793 1.862 3.724v0c0 0 0.931 0.931 0 0.931 0 0.931-0.931 4.655-0.931 4.655v0c-3.724 0-2.793 5.585-5.585 7.447-1.862 1.862-1.862 2.793-7.447 2.793-0.931 0 0.931 3.724 4.655 4.655 0 0 0 0 0.931 0 1.862-0.931 4.655-1.862 6.516-1.862 0.931 0 1.862 0 1.862 0.931 0.931 0.931 0.931 1.862 0 2.793v0c0 0.931 0.931 1.862 1.862 1.862 1.862-0.931 2.793-1.862 5.585-1.862 0.931 0 1.862 0.931 1.862 1.862 0 0 0 0.931 0.931 0.931 3.724 1.862 5.585 2.793 5.585 3.724 1.862 1.862 3.724 3.724 6.516 4.655 3.724 1.862 4.655 2.793 8.378 5.585 0.931 0.931 2.793 1.862 4.655 2.793 0.931 0 0.931 0.931 0.931 0.931v0c0.931 0.931 1.862 0.931 2.793 0.931 1.862 0 3.724 0 4.655 0v0c0.931 0.931 1.862 0.931 2.793 0.931 2.793 0 5.585-0.931 4.655 5.585-0.931 5.585 0.931 12.102 5.585 16.756v0c1.862-0.931 1.862-2.793 1.862-4.655 0-0.931 0-2.793-0.931-3.724v0c-8.378-8.378 1.862-8.378 2.793-11.171v0c0 0 0-0.931 0.931-0.931h0.931c0 0 8.378 3.724 8.378 2.793 1.862-0.931 0-1.862 1.862-2.793v0c1.862-1.862 4.655-1.862 6.516-0.931 4.655 2.793 9.309 2.793 14.895 1.862 2.793 0 8.378 5.585 7.447 8.378v0c-0.931 1.862-0.931 3.724 0 6.516 0 0.931 0 1.862 0.931 2.793s1.862 0.931 2.793 0c0.931 0 1.862-0.931 3.724 0s2.793 1.862 2.793 3.724v0 0.931c-0.931 0.931-1.862 2.793-1.862 3.724 0 1.862 1.862 2.793 3.724 3.724 5.585 0.931 6.516-1.862 11.171 2.793 0 0 0.931 0.931 0 0.931 0 0 0 0.931-0.931 0.931v0c-3.724 0.931-8.378 0.931-12.102-0.931l-8.378 3.724c-0.931-0.931-1.862-0.931-2.793-0.931-3.724 0-5.585 3.724-6.516 6.516-1.862 3.724-0.931 8.378 0.931 12.102 0.931 1.862 1.862 3.724 2.793 5.585 0 0.931 0.931 1.862 0.931 2.793-0.931 2.793-4.655 3.724-7.447 2.793-4.655-0.931-1.862-6.516-3.724-9.309 0-0.931-4.655-2.793-4.655-4.655-0.931-5.585-1.862-9.309-0.931-11.171 0.931-4.655 0-8.378-0.931-13.033v0c-0.931-3.724 0.931-7.447 0-10.24-1.862-3.724-7.447-0.931-8.378-5.585 0-1.862-4.655 0.931-5.585 1.862 0 3.724-1.862 5.585-2.793 9.309-0.931 2.793-2.793 4.655-5.585 5.585-6.516 1.862-8.378-4.655-13.964-2.793-4.655 1.862-8.378 5.585-8.378 11.171 0 4.655 2.793 10.24 7.447 12.102v0c15.825 6.516 18.618 12.102 20.48 15.825 0 0.931 0.931 1.862 1.862 1.862v0 0c0 0.931 0.931 1.862 0.931 1.862 1.862 1.862 2.793 3.724 4.655 5.585s3.724 4.655 3.724 4.655v0c0 0 8.378 8.378 16.756 11.171 3.724 0.931 7.447 0.931 8.378 0.931s2.793-0.931 4.655-0.931v0c0-0.931 0-1.862 0.931-1.862 0.931-1.862 4.655-0.931 9.309-2.793 4.655-2.793 11.171-1.862 16.756-2.793 1.862 0 3.724-2.793 3.724-4.655s-1.862-3.724-4.655-3.724c-1.862 0-2.793-0.931-3.724-2.793s0-2.793 0.931-3.724 3.724-2.793 6.516-3.724c2.793-0.931 7.447-1.862 5.585 0v0c-0.931 0.931-1.862 0.931-2.793 0.931-3.724 0-2.793 3.724-0.931 2.793s8.378-1.862 3.724 2.793c-0.931 0.931-0.931 0.931 0 1.862s0.931 1.862 1.862 2.793 0.931 1.862 3.724 0.931c0.931 0 0.931 0 1.862 0 0.931 0.931 1.862 0.931 0.931 1.862s0.931 1.862 0.931 1.862c0.931 0 1.862 0 2.793 0.931 0 0.931 0.931 0.931 0 1.862-0.931 1.862 0.931 6.516 3.724 7.447 0.931 0 0.931 0 1.862 0v0c0.931 0.931 0.931 0.931 1.862 0.931s2.793 0.931 3.724 1.862 2.793 1.862 4.655 0.931v0c0.931 0.931 0 1.862 0 1.862-0.931 0.931-4.655 2.793-3.724 3.724 0 0 2.793 0.931 2.793 2.793 0 0.931-0.931 2.793-1.862 2.793-36.305 13.964-74.473 23.273-115.433 25.135-7.447-4.655-14.895-10.24-21.411-14.895-24.204-20.48-63.302-28.858-62.371-26.065-3.724 0-4.655 0.931-4.655 0.931-0.931 0-1.862-0.931-3.724 0v0c0 0 0 0.931-0.931 0.931-0.931 0.931-3.724-0.931-10.24-4.655v0 0c-4.655-2.793-7.447-2.793-10.24-2.793-1.862 0-2.793 0-3.724-0.931 0 0 0 0-0.931 0 0 0.931 1.862 1.862 2.793 1.862s0 0.931-2.793-0.931c-0.931 0-1.862-0.931-1.862 0-2.793 0.931-6.516-1.862-9.309-3.724 0 0-0.931-0.931-1.862 0-0.931 0-1.862 0-0.931-0.931 0-0.931-7.447-4.655-8.378-4.655l-0.931 0.931c-0.931 0-2.793-0.931-2.793-2.793-0.931-2.793-4.655-2.793-6.516-4.655s-4.655-2.793-4.655-2.793c-0.931-0.931-1.862-1.862-2.793-1.862s-1.862 1.862-0.931 2.793c0 0 1.862 1.862 1.862 2.793v0c0 0.931 0.931 0.931 0.931 1.862s-2.793 0.931-3.724 0.931c0 0 0 0 0 0.931 1.862 3.724 1.862 3.724 4.655 6.516v0 0.931c1.862 1.862 5.585 8.378 11.171 8.378 1.862 0 0.931 0.931 0.931 0.931-0.931 0.931-2.793 0.931-1.862 1.862 1.862 1.862 4.655 4.655 8.378 6.516 1.862 0.931 2.793 1.862 4.655 2.793 0.931 0.931 5.585 2.793 10.24 3.724v0c3.724 0 14.895 7.447 14.895 7.447v0c0 0 0 0.931 0 1.862 0 0 0 0 0 0.931 0.931 0.931 1.862 0.931 3.724 0.931v0c0 0 0 0.931-0.931 0.931-1.862-0.931-2.793-0.931-3.724-0.931h-0.931v0.931c2.793 1.862 5.585 1.862 9.309 3.724 0.931 0 0.931 2.793-1.862 2.793-13.033-1.862-26.065-6.516-38.167-10.24v0l-2.793-1.862c0 0 0 0 0-0.931v0 0c-0.931 0-1.862 0-1.862-0.931s0.931 0 0.931-0.931v-0.931l-2.793-0.931c0 0 0 0.931-0.931 0-1.862-0.931-1.862-1.862-2.793-1.862-3.724-0.931-7.447-1.862-7.447-1.862l1.862 1.862c0.931 1.862 1.862 1.862 2.793 1.862s0.931 0.931-1.862 0-5.585-2.793-7.447-4.655-3.724-3.724-5.585-4.655c0 0.931 0 0.931 0 0.931l-1.862-0.931c-1.862 0.931 0.931 1.862 0.931 3.724 0 0 0 0.931 0.931 0.931v0c-1.862-0.931-3.724-1.862-5.585-3.724-0.931-0.931-1.862-2.793-3.724-1.862-0.931 0.931-1.862 0.931-2.793 0-5.585-2.793-10.24-4.655-14.895-7.447-0.931 0-0.931-0.931-1.862-0.931l-0.931-0.931c0-0.931-0.931-1.862-0.931-1.862v-0.931c0-0.931 1.862 0 2.793 0s2.793 0 2.793-0.931c0.931-0.931 0-1.862 0-2.793-0.931-0.931-0.931-1.862-1.862-1.862-0.931-1.862-2.793-3.724-3.724-4.655s-1.862-1.862-2.793-1.862c-9.309-8.378-10.24-24.204-16.756-27.927v0c-5.585-2.793-7.447 0-13.964-2.793-0.931-0.931-2.793 0-3.724 0s-1.862 0.931-1.862 1.862v0c-1.862 3.724-5.585 5.585-9.309 3.724-0.931 0-0.931 0-1.862 0v0 0c-0.931 0-9.309-2.793-8.378-3.724 0 0 13.033 3.724 10.24-2.793v0c-0.931 0-0.931-0.931-0.931-0.931 0-0.931-0.931-0.931-1.862-0.931s-2.793 0-3.724 0.931v0c-0.931 0-0.931-1.862-0.931-1.862 0-0.931 1.862-0.931 0-1.862-0.931-0.931-2.793-0.931-2.793-1.862-0.931-0.931-0.931-2.793-1.862-3.724s0.931-1.862 0-2.793c-1.862-1.862-7.447 0-10.24 0 0 0-3.724 0-5.585-0.931s-6.516-1.862-8.378-4.655c-3.724-4.655-3.724-5.585-7.447-4.655h-0.931c-44.684-47.476-77.265-107.985-92.16-174.080v0c-0.931-4.655-1.862-9.309-3.724-19.549 0 0 0 0 0-0.931s0-0.931 1.862-0.931c3.724 0 6.516-1.862 6.516-5.585 0-0.931 0.931-1.862 1.862-1.862s1.862 0 1.862 0 3.724-1.862 3.724-4.655c0-1.862 0.931-3.724 0.931-4.655 0-1.862 0-3.724-0.931-5.585v-0.931c1.862-6.516 8.378-32.582 10.24-33.513 0.931 0 1.862 0 1.862-0.931 13.964-15.825 30.72-42.822 29.789-51.2-2.793-5.585-2.793-5.585 0-9.309 4.655-6.516 4.655-6.516 2.793-13.033v0c0.931 1.862 2.793 2.793 5.585 2.793 1.862 0 3.724-0.931 5.585-2.793 0.931-0.931 1.862-2.793 2.793-3.724 2.793-2.793 4.655-6.516 3.724-10.24 0 0 4.655 0 11.171-4.655 8.378-5.585 36.305-38.167 37.236-47.476 0.931-3.724-0.931-7.447-2.793-11.171s-10.24-12.102-11.171-16.756c-0.931-1.862-3.724-2.793-3.724-4.655s0.931-5.585 2.793-13.033c0.931-1.862 2.793-18.618 1.862-25.135-0.931-3.724-0.931-4.655 0-8.378 0-0.931-2.793-4.655-5.585-3.724-2.793 1.862-5.585 1.862-5.585 0.931v0c-3.724-6.516-17.687-7.447-14.895-13.964 0.931-1.862 1.862-3.724 2.793-6.516s1.862-4.655 1.862-7.447c0-0.931 3.724-9.309 7.447-12.102 63.302-72.611 158.255-116.364 264.378-116.364 205.731 0 372.364 166.633 372.364 372.364zM457.076 685.382c1.862 0.931 2.793 1.862 4.655 1.862v0c1.862 0.931 4.655 0 4.655 0.931 0.931 0.931 1.862 2.793 2.793 3.724 0 0.931 0 1.862 0 1.862 0.931 0 0 1.862 0 1.862 0.931 1.862 0.931 1.862 1.862 1.862s0.931 0 1.862 0.931c0.931 1.862-2.793 6.516-5.585 5.585s-4.655-4.655-5.585-4.655-1.862 0-2.793-0.931c-0.931 0-0.931-0.931-0.931-1.862-0.931-0.931-0.931-0.931-1.862-1.862 0-0.931-0.931-0.931 0-1.862 0 0 0.931-0.931-0.931-2.793-0.931-1.862-2.793-1.862-3.724-3.724 0-0.931 0-1.862 0-2.793 0.931 0 3.724 0.931 5.585 1.862z" />
<glyph unicode="&#xe916;" glyph-name="cycle" d="M46.545 318.604c0-103.331 83.782-188.044 187.113-188.044s187.113 83.782 187.113 187.113c0 76.335-45.615 141.498-110.778 171.287l21.411 56.785 111.709-179.665h-12.102v-88.436h134.051v13.033h40.029c13.033-90.298 91.229-159.185 185.251-159.185 103.331 0 187.113 83.782 187.113 187.113s-83.782 187.113-187.113 187.113c-15.825 0-30.72-1.862-45.615-5.585l-44.684 110.778 14.895 26.065h35.375v45.615h-142.429v-45.615h49.338l-13.033-24.204h-287.651l40.029 107.055h89.367v45.615h-123.811v-3.724l-95.884-258.793c-10.24 1.862-21.411 2.793-31.651 2.793-104.262 0-188.044-83.782-188.044-187.113zM104.262 318.604c0 71.68 57.716 129.396 129.396 129.396 3.724 0 7.447 0 11.171-0.931l-51.2-136.844 44.684-15.825 52.131 140.567c42.822-21.411 72.611-65.164 72.611-116.364 0-71.68-57.716-129.396-129.396-129.396s-129.396 57.716-129.396 129.396zM697.251 481.513c-50.269-28.858-85.644-79.127-93.091-138.705h-39.098v24.204h-1.862l104.262 187.113 29.789-72.611zM662.807 341.876c6.516 35.375 27.927 65.164 56.785 83.782l34.444-83.782h-91.229zM766.138 445.207c7.447 1.862 15.825 1.862 23.273 1.862 71.68 0 129.396-57.716 129.396-129.396s-57.716-129.396-129.396-129.396c-62.371 0-114.502 43.753-126.604 102.4h158.255v51.2h-13.964l-40.96 103.331zM506.415 366.080h-9.309l-134.982 208.524h261.585l-117.295-208.524z" />
<glyph unicode="&#xe917;" glyph-name="day-off" d="M954.182 717.964v-146.153h-149.876c40.96-95.884 98.676-191.767 173.149-286.72l-94.022-168.495c-68.887 100.538-123.811 204.8-166.633 311.855v-415.185h-169.425v415.185c-43.753-109.847-99.607-214.109-166.633-311.855l-76.335 80.058v-184.32h-163.84v370.502c-19.549-30.72-38.167-54.924-56.785-73.542l-37.236 207.593c38.167 49.338 69.818 102.4 94.953 160.116 24.204 57.716 44.684 126.604 60.509 206.662l159.185-28.858c-7.447-49.338-16.756-94.953-28.858-136.844h215.040v160.116h169.425v-160.116h237.382zM458.938 572.742h-130.327v130.327c-5.585-18.618-13.033-41.891-24.204-69.818v-324.887c63.302 84.713 115.433 172.218 154.531 264.378z" />
<glyph unicode="&#xe918;" glyph-name="elevator" d="M491.52 785.92l-108.916 116.364c0 0 0 0 0 0-0.931 1.862-2.793 2.793-3.724 3.724-0.931 0-0.931 0.931-1.862 1.862-1.862 0.931-3.724 1.862-5.585 2.793 0 0 0 0-0.931 0-1.862 0.931-4.655 1.862-6.516 1.862 0 0-0.931 0-0.931 0-1.862 0.931-3.724 0.931-5.585 0.931 0 0 0 0 0 0s0 0 0 0c-0.931 0-1.862 0-2.793 0-1.862 0-2.793 0-4.655-0.931-0.931 0-0.931 0-1.862-0.931-1.862 0-2.793-0.931-4.655-1.862-0.931 0-0.931-0.931-1.862-0.931-0.931-0.931-2.793-0.931-3.724-1.862s-0.931-0.931-1.862-1.862-2.793-0.931-3.724-2.793c0 0 0 0-0.931-0.931l-98.676-107.985c-13.033-13.964-12.102-36.305 2.793-48.407s36.305-12.102 48.407 2.793l39.098 42.822v-170.356c0-18.618 15.825-34.444 34.444-34.444s34.444 15.825 34.444 34.444v171.287l49.338-53.062c13.033-13.964 34.444-14.895 48.407-1.862 14.895 13.964 14.895 35.375 1.862 49.338zM532.48 711.447l108.916-116.364c0 0 0 0 0 0 0.931-0.931 1.862-1.862 3.724-2.793 0.931 0 0.931-0.931 1.862-1.862 1.862-0.931 3.724-1.862 5.585-2.793 0 0 0 0 0.931 0 1.862-0.931 4.655-1.862 6.516-1.862 0 0 0.931 0 0.931 0 1.862 0 3.724-0.931 5.585-0.931 0 0 0 0 0 0s0 0 0 0c0.931 0 1.862 0 2.793 0 1.862 0 2.793 0 4.655 0.931 0.931 0 0.931 0 1.862 0.931 1.862 0 2.793 0.931 4.655 1.862 0.931 0 1.862 0.931 1.862 0.931 0.931 0.931 2.793 0.931 3.724 1.862s0.931 0.931 1.862 1.862 1.862 1.862 2.793 2.793c0 0 0 0 0.931 0.931l99.607 107.985c13.033 13.964 12.102 36.305-2.793 48.407-13.964 13.033-36.305 12.102-48.407-2.793l-39.098-41.891v170.356c0 18.618-15.825 34.444-34.444 34.444s-34.444-15.825-34.444-34.444v-173.149l-49.338 53.062c-13.033 13.964-34.444 14.895-48.407 1.862-14.895-13.033-14.895-35.375-1.862-49.338zM777.309 525.265c-8.378 8.378-19.549 13.033-31.651 13.033h-469.178c-24.204 0-44.684-19.549-44.684-44.684v-467.316c0-12.102 4.655-23.273 13.033-31.651s19.549-13.033 31.651-13.033h469.178c12.102 0 23.273 4.655 31.651 13.033s13.033 19.549 13.033 31.651v468.247c0 11.171-4.655 22.342-13.033 30.72zM721.455 469.411v-417.978h-419.84v417.978h419.84zM402.153 391.215c0-11.311-9.169-20.48-20.48-20.48s-20.48 9.169-20.48 20.48c0 11.311 9.169 20.48 20.48 20.48s20.48-9.169 20.48-20.48zM428.218 352.116h-94.022c-5.585 0-9.309-4.655-9.309-9.309v-110.778c0-5.585 4.655-10.24 9.309-10.24h15.825v-131.258c0-7.447 5.585-13.033 13.033-13.033s13.033 5.585 13.033 13.033v131.258h18.618v-131.258c0-7.447 5.585-13.033 13.033-13.033s13.033 5.585 13.033 13.033v131.258h7.447c5.585 0 9.309 4.655 9.309 10.24v109.847c0.931 5.585-3.724 10.24-9.309 10.24zM532.48 391.215c0-11.311-9.169-20.48-20.48-20.48s-20.48 9.169-20.48 20.48c0 11.311 9.169 20.48 20.48 20.48s20.48-9.169 20.48-20.48zM559.476 352.116h-94.022c-5.585 0-9.309-4.655-9.309-9.309v-110.778c0-5.585 4.655-10.24 9.309-10.24h15.825v-131.258c0-7.447 5.585-13.033 13.033-13.033s13.033 5.585 13.033 13.033v131.258h18.618v-131.258c0-7.447 5.585-13.033 13.033-13.033s13.033 5.585 13.033 13.033v131.258h7.447c5.585 0 10.24 4.655 10.24 10.24v109.847c-0.931 5.585-4.655 10.24-10.24 10.24zM644.189 370.735c11.171 0 20.48 9.309 20.48 20.48s-9.309 20.48-20.48 20.48c-11.171 0-20.48-9.309-20.48-20.48s9.309-20.48 20.48-20.48zM691.665 352.116h-94.022c-5.585 0-10.24-4.655-10.24-9.309v-110.778c0-5.585 4.655-10.24 10.24-10.24h15.825v-131.258c0-7.447 5.585-13.033 13.033-13.033s13.033 5.585 13.033 13.033v131.258h18.618v-131.258c0-7.447 5.585-13.033 13.033-13.033s13.033 5.585 13.033 13.033v131.258h7.447c5.585 0 10.24 4.655 10.24 10.24v109.847c-0.931 5.585-4.655 10.24-10.24 10.24z" />
<glyph unicode="&#xe919;" glyph-name="estimate" d="M660.015 866.909l-148.015-297.891-148.015 297.891h-192.698c0 0 118.225-229.004 187.113-361.193h-139.636v-125.673h197.353v-67.956h-197.353v-125.673h197.353v-157.324h191.767v157.324h197.353v125.673h-197.353v67.956h197.353v125.673h-139.636c67.956 132.189 187.113 361.193 187.113 361.193h-192.698z" />
<glyph unicode="&#xe91a;" glyph-name="facebook-silhouette" d="M584.611-17.455v424.495h142.429l21.411 165.702h-163.84v105.193c0 47.476 13.033 80.989 81.92 80.989h87.505v148.015c-14.895 1.862-67.025 6.516-128.465 6.516-126.604 0-213.178-77.265-213.178-218.764v-121.949h-142.429v-165.702h142.429v-424.495h172.218z" />
<glyph unicode="&#xe91b;" glyph-name="facebook" d="M926.255 913.455h-828.509c-27.927 0-51.2-23.273-51.2-51.2v-828.509c0-27.927 23.273-51.2 51.2-51.2h446.836v361.193h-121.018v140.567h121.018v103.331c0 120.087 73.542 185.251 180.596 185.251 51.2 0 94.953-3.724 107.985-5.585v-126.604h-74.473c-58.647 0-69.818-26.996-69.818-67.956v-89.367h138.705l-17.687-140.567h-121.018v-360.262h237.382c27.927 0 51.2 23.273 51.2 51.2v828.509c0 27.927-23.273 51.2-51.2 51.2z" />
<glyph unicode="&#xe91c;" glyph-name="favorite" d="M968.145 695.622c-48.407 208.524-352.815 260.655-456.145 50.269-103.331 210.385-407.738 158.255-456.145-50.269-79.127-338.851 367.709-492.451 456.145-679.564 88.436 186.182 535.273 340.713 456.145 679.564z" />
<glyph unicode="&#xe91d;" glyph-name="filter" d="M942.080 794.298c42.822 93.091-309.062 109.847-430.080 109.847-115.433 0-472.902-16.756-430.080-109.847 19.549-42.822 351.884-500.829 351.884-500.829v-203.869l159.185-116.364v319.302c0 0 328.611 458.007 349.091 501.76zM512 847.36c186.182 0 356.538-25.135 356.538-53.062s-170.356-51.2-356.538-51.2-351.884 22.342-351.884 51.2 165.702 53.062 351.884 53.062z" />
<glyph unicode="&#xe91e;" glyph-name="fog" d="M838.749 582.982c-6.516 125.673-117.295 224.349-249.484 213.178-41.891 48.407-104.262 78.196-174.080 78.196-122.88 0-223.418-94.953-229.935-214.109-79.127-13.033-138.705-80.989-138.705-162.909 0-91.229 75.404-165.702 168.495-165.702h51.2c29.789-46.545 82.851-77.265 142.429-77.265h399.36c93.091 0 168.495 74.473 168.495 165.702 0.931 80.989-58.647 148.945-137.775 162.909zM241.105 408.902h-26.065c-50.269 0-91.229 40.029-91.229 88.436 0 81.92 81.92 100.538 134.982 97.745-1.862 52.131 5.585 202.007 155.462 202.007 37.236 0 66.095-9.309 88.436-25.135-69.818-35.375-119.156-106.124-123.811-188.975-78.196-13.964-143.36-81.92-137.775-174.080zM808.96 331.636h-399.36c-50.269 0-91.229 40.029-91.229 88.436 0 81.92 81.92 100.538 134.982 97.745-1.862 52.131 5.585 202.007 155.462 202.007 146.153 0 163.84-146.153 155.462-202.007 58.647 3.724 134.982-16.756 134.982-97.745 0.931-48.407-40.029-88.436-90.298-88.436zM977.455 138.007h-737.28v77.265h737.28v-77.265zM977.455 21.644h-737.28v77.265h737.28v-77.265z" />
<glyph unicode="&#xe91f;" glyph-name="google-plus" d="M977.455 706.793h-123.811v-123.811h-61.44v123.811h-122.88v61.44h123.811v123.811h61.44v-123.811h122.88v-61.44zM628.364 196.655c0-92.16-84.713-204.8-296.96-204.8-155.462 0-284.858 67.025-284.858 179.665 0 86.575 54.924 200.145 312.785 200.145-38.167 30.72-47.476 74.473-24.204 121.949-150.807 0-228.073 88.436-228.073 201.076 0 109.847 81.92 209.455 248.553 209.455 41.891 0 268.102 0 268.102 0l-59.578-62.371h-70.749c49.338-27.927 76.335-86.575 76.335-150.807 0-59.578-32.582-107.055-79.127-143.36-82.851-64.233-61.44-99.607 25.135-161.978 84.713-64.233 112.64-113.571 112.64-188.975zM461.731 686.313c-12.102 94.953-74.473 172.218-146.153 174.080s-120.087-70.749-107.985-164.771c12.102-94.953 80.989-161.047 152.669-162.909 72.611-1.862 113.571 58.647 101.469 153.6zM536.204 187.345c0 78.196-70.749 151.738-189.905 151.738-107.985 0.931-199.215-67.956-199.215-148.015 0-81.92 77.265-149.876 185.251-149.876 137.775 0 203.869 64.233 203.869 146.153z" />
<glyph unicode="&#xe920;" glyph-name="gourmet" d="M494.313 857.6c-1.862 19.549-19.549 33.513-39.098 31.651-18.618-1.862-31.651-17.687-31.651-35.375 0-0.931 0-2.793 0-3.724 9.309-80.989 15.825-173.149 15.825-235.52 0-31.651-1.862-53.993-5.585-65.164-12.102-4.655-36.305-6.516-63.302-8.378v322.095c0 19.549-15.825 35.375-35.375 35.375s-35.375-15.825-35.375-35.375v-322.095c-25.135 0.931-46.545 3.724-58.647 7.447-2.793 12.102-4.655 33.513-4.655 64.233 0 62.371 5.585 153.6 13.964 234.589 0 0.931 0 2.793 0 3.724 0 17.687-13.964 33.513-31.651 35.375-19.549 1.862-37.236-12.102-39.098-31.651-33.513-329.542-0.931-351.884 14.895-363.055 17.687-12.102 59.578-19.549 106.124-22.342v-451.491c0-19.549 15.825-35.375 35.375-35.375s35.375 15.825 35.375 35.375v451.491c46.545 1.862 89.367 9.309 107.985 21.411 15.825 10.24 53.062 35.375 14.895 366.778zM860.16 614.633c0 186.182-151.738 288.582-158.255 292.305-16.756 11.171-39.098 6.516-50.269-9.309-5.585-9.309-6.516-19.549-3.724-29.789 0-1.862-0.931-3.724-0.931-4.655v-845.265c0-19.549 15.825-35.375 35.375-35.375s35.375 15.825 35.375 35.375v301.615c34.444 29.789 142.429 136.844 142.429 295.098z" />
<glyph unicode="&#xe921;" glyph-name="hatena-silhouette" d="M918.807 801.745h-164.771v-471.971h164.771v471.971zM484.073 475.927c44.684 12.102 76.335 29.789 96.815 53.062s30.72 54.924 30.72 94.953c0 31.651-6.516 59.578-20.48 83.782s-33.513 42.822-59.578 57.716c-22.342 12.102-49.338 21.411-80.989 26.065s-86.575 7.447-165.702 7.447h-191.767v-701.905h198.284c80.058 0 136.844 2.793 172.218 8.378s64.233 14.895 88.436 27.927c29.789 15.825 52.131 37.236 67.956 66.095s23.273 61.44 23.273 98.676c0 52.131-13.964 94.022-41.891 124.742-27.927 31.651-67.025 49.338-117.295 53.062zM270.895 643.491h40.96c47.476 0 79.127-5.585 95.884-15.825 15.825-11.171 24.204-28.858 24.204-55.855 0-25.135-8.378-42.822-26.065-53.993-17.687-10.24-50.269-15.825-96.815-15.825h-38.167c0 0 0 141.498 0 141.498zM433.804 241.338c-18.618-11.171-51.2-16.756-95.884-16.756h-67.025v152.669h69.818c46.545 0 78.196-5.585 95.884-17.687s26.065-32.582 26.065-61.44c-0.931-26.996-10.24-45.615-28.858-56.785zM836.887 283.229c-52.131 0-94.022-41.891-94.022-94.022s41.891-94.953 94.022-94.953 94.022 41.891 94.022 94.022-41.891 94.953-94.022 94.953z" />
<glyph unicode="&#xe922;" glyph-name="hatena" d="M524.102 338.153c0-13.964-2.793-26.065-7.447-35.375s-11.171-16.756-19.549-22.342c-8.378-4.655-17.687-8.378-28.858-11.171s-22.342-3.724-34.444-3.724h-130.327v151.738h133.12c26.065 0 47.476-6.516 63.302-18.618s24.204-31.651 24.204-60.509zM479.418 516.887c13.964 10.24 20.48 26.996 20.48 50.269 0 13.033-2.793 23.273-6.516 31.651-4.655 8.378-11.171 14.895-18.618 19.549s-16.756 7.447-26.996 9.309c-10.24 1.862-20.48 2.793-31.651 2.793h-112.64v-129.396h122.88c21.411 0 39.098 5.585 53.062 15.825zM977.455 866.909v-837.818c0-26.065-20.48-46.545-46.545-46.545h-837.818c-26.065 0-46.545 20.48-46.545 46.545v837.818c0 26.065 20.48 46.545 46.545 46.545h837.818c26.065 0 46.545-20.48 46.545-46.545zM723.316 575.535l29.789-238.313h54.924l29.789 238.313v148.945h-114.502v-148.945zM646.051 332.567c0 34.444-8.378 64.233-25.135 88.436s-41.891 40.96-76.335 51.2c24.204 12.102 42.822 26.996 55.855 45.615 12.102 18.618 18.618 41.891 18.618 69.818 0 26.065-4.655 47.476-13.033 65.164-8.378 16.756-20.48 31.651-36.305 41.891-15.825 11.171-34.444 18.618-55.855 23.273s-45.615 6.516-71.68 6.516h-260.655v-552.96h269.964c25.135 0 49.338 2.793 72.611 9.309s43.753 15.825 62.371 28.858c18.618 13.033 32.582 29.789 43.753 50.269 10.24 20.48 15.825 44.684 15.825 72.611zM842.473 290.676h-121.949v-119.156h121.949v119.156z" />
<glyph unicode="&#xe923;" glyph-name="help" d="M501.76 913.455c6.516 0 13.033 0 19.549 0 140.567-5.585 242.967-63.302 317.44-137.775s131.258-175.942 137.775-315.578c0-8.378 0-15.825 0-24.204-6.516-139.636-63.302-241.105-137.775-315.578s-175.011-131.258-314.647-137.775c-8.378 0-15.825 0-24.204 0-139.636 7.447-242.967 63.302-317.44 137.775s-129.396 178.735-135.913 317.44c0 6.516 0 13.033 0 19.549 7.447 127.535 53.993 235.52 129.396 311.855 79.127 79.127 186.182 139.636 325.818 144.291zM607.884 463.825c29.789 26.065 63.302 63.302 67.956 113.571 9.309 103.331-64.233 149.876-161.978 148.015-60.509-1.862-121.018-32.582-127.535-85.644-3.724-27.927 7.447-50.269 26.065-55.855 22.342-6.516 45.615 3.724 52.131 17.687 8.378 19.549-2.793 38.167 3.724 55.855 9.309 22.342 48.407 29.789 71.68 19.549 19.549-7.447 27.927-29.789 29.789-47.476 13.964-128.465-81.92-151.738-81.92-261.585 12.102-4.655 32.582-0.931 48.407-1.862-1.862 51.2 39.098 68.887 71.68 97.745zM501.76 164.073c100.538-9.309 94.953 149.876-5.585 129.396-77.265-14.895-60.509-122.88 5.585-129.396z" />
<glyph unicode="&#xe924;" glyph-name="hotel" d="M332.335 913.455c0.931 0 0.931 0 1.862 0 11.171-11.171 16.756-27.927 23.273-43.753 16.756-1.862 36.305-0.931 47.476-9.309-4.655-17.687-29.789-25.135-30.72-40.029-0.931-15.825 8.378-30.72 3.724-45.615-18.618 2.793-29.789 13.964-45.615 20.48-13.964-6.516-28.858-21.411-45.615-18.618 0 17.687 5.585 28.858 5.585 45.615-2.793 13.033-27.927 20.48-30.72 40.029 13.964 4.655 29.789 6.516 47.476 7.447 6.516 14.895 12.102 32.582 23.273 43.753zM511.069 913.455c0.931 0 2.793 0 3.724 0 10.24-12.102 15.825-28.858 23.273-43.753 16.756-1.862 36.305-1.862 47.476-9.309-2.793-19.549-28.858-21.411-32.582-40.029-2.793-13.964 13.033-30.72 3.724-45.615-19.549 2.793-27.927 15.825-45.615 20.48-14.895-5.585-26.996-22.342-45.615-18.618 1.862 15.825 4.655 29.789 7.447 45.615-7.447 14.895-32.582 22.342-30.72 40.029 13.033 4.655 28.858 6.516 45.615 7.447 7.447 14.895 13.033 31.651 23.273 43.753zM691.665 913.455c0.931 0 0.931 0 1.862 0 11.171-11.171 16.756-28.858 23.273-43.753 16.756-1.862 36.305-0.931 47.476-9.309-4.655-17.687-29.789-25.135-30.72-40.029-0.931-15.825 8.378-30.72 3.724-45.615-17.687 3.724-29.789 13.033-43.753 20.48-15.825-4.655-29.789-21.411-47.476-18.618-0.931 17.687 5.585 28.858 5.585 45.615-2.793 13.033-27.927 20.48-30.72 40.029 13.964 4.655 29.789 6.516 47.476 7.447 6.516 15.825 12.102 32.582 23.273 43.753zM943.011-17.455c-286.72 0-573.44 0-860.16 0 0 204.8 0 408.669 0 610.676 0 28.858-3.724 59.578 0 87.505 5.585 47.476 46.545 85.644 94.953 91.229 52.131 5.585 110.778 0 167.564 0 109.847 0 227.142 0 335.127 0 57.716 0 116.364 5.585 169.425 0 54.924-6.516 82.851-47.476 93.091-93.091 0-232.727 0-464.524 0-696.32zM871.331 540.16c0 38.167 9.309 132.189-11.171 150.807-11.171 10.24-44.684 9.309-74.473 9.309-175.942 0-340.713 0-513.862 0-28.858 0-60.509 4.655-85.644 0-40.029-6.516-32.582-45.615-32.582-94.953 0-180.596 0-385.396 0-552.029 94.953 0.931 195.491-2.793 287.651 1.862 0 71.68 0 143.36 0 215.040 46.545-0.931 98.676 2.793 142.429-1.862 0.931-70.749-2.793-147.084 1.862-215.040 94.953 0 190.836 0 285.789 0 0 162.909 0 323.956 0 486.865zM368.64 629.527c0-36.305 0-72.611 0-108.916-47.476 0-94.953 0-142.429 0-4.655 30.72-0.931 69.818-1.862 104.262 0 2.793 0.931 4.655 3.724 5.585 47.476-0.931 94.022-0.931 140.567-0.931zM583.68 629.527c0-36.305 0-72.611 0-108.916-47.476 0-94.953 0-142.429 0 0.931 35.375-2.793 76.335 1.862 108.916 47.476 0 94.022 0 140.567 0zM798.72 629.527c2.793-32.582 2.793-77.265 0-108.916-47.476 0-94.953 0-142.429 0 0.931 35.375-2.793 76.335 1.862 108.916 47.476 0 94.022 0 140.567 0zM368.64 448.931c0-35.375 0-71.68 0-107.055-48.407 0-95.884 0-144.291 0 0.931 35.375-2.793 75.404 1.862 107.055 47.476 0 94.953 0 142.429 0zM583.68 448.931c0-35.375 0-71.68 0-107.055-47.476 0-94.953 0-142.429 0 0.931 35.375-2.793 75.404 1.862 107.055 47.476 0 94.022 0 140.567 0zM800.582 448.931c0-35.375 0-71.68 0-107.055-48.407 0-95.884 0-144.291 0 0.931 35.375-2.793 75.404 1.862 107.055 47.476 0 94.953 0 142.429 0zM368.64 270.196c0-36.305 0-72.611 0-108.916-47.476 0-94.953 0-142.429 0-4.655 30.72-0.931 69.818-1.862 104.262 0 2.793 0.931 4.655 3.724 5.585 47.476-0.931 94.022-0.931 140.567-0.931zM798.72 270.196c2.793-32.582 2.793-77.265 0-108.916-47.476 0-94.953 0-142.429 0 0.931 35.375-2.793 76.335 1.862 108.916 47.476 0 94.022 0 140.567 0z" />
<glyph unicode="&#xe925;" glyph-name="ittemita" d="M206.662 542.022l223.418-53.993 323.956 224.349-242.036-255.069 245.76-232.727 192.698 688.873-743.796-371.433zM483.142 188.276l106.124 122.88-106.124 102.4v-225.28zM391.913 278.575l36.305-36.305c-33.513-34.444-68.887-75.404-82.851-131.258l-50.269 12.102c17.687 69.818 58.647 117.295 96.815 155.462zM342.575-16.524c-32.582-3.724-61.44 7.447-84.713 31.651-56.785-19.549-110.778 1.862-138.705 41.891-22.342 31.651-26.996 71.68-13.964 110.778-24.204 23.273-35.375 52.131-31.651 84.713 5.585 54.924 49.338 96.815 124.742 88.436l7.447-43.753c-26.065-2.793-49.338-3.724-65.164-19.549-26.065-26.065-17.687-80.058 30.72-94.022-32.582-32.582-28.858-79.127-4.655-104.262 25.135-26.996 73.542-30.72 107.055 1.862 14.895-50.269 69.818-54.924 94.022-30.72 14.895 14.895 16.756 38.167 18.618 64.233l43.753-9.309c9.309-72.611-32.582-116.364-87.505-121.949zM202.007 255.302l12.102-50.269c67.956 16.756 114.502 55.855 154.531 95.884l-36.305 36.305c-33.513-33.513-74.473-67.956-130.327-81.92z" />
<glyph unicode="&#xe926;" glyph-name="japan" d="M257.862 394.938h-164.771c-4.655 0-9.309-4.655-9.309-9.309v-198.284c0-5.585 4.655-9.309 9.309-9.309h41.891c5.585 0 9.309-3.724 9.309-9.309v-85.644c0-5.585 3.724-9.309 9.309-9.309h104.262c4.655 0 9.309 3.724 9.309 9.309v302.545c0 4.655-3.724 9.309-9.309 9.309zM87.505 123.113h-31.651c-5.585 0-9.309-3.724-9.309-9.309v-68.887c0-5.585 3.724-9.309 9.309-9.309h31.651c4.655 0 9.309 3.724 9.309 9.309v68.887c0 5.585-4.655 9.309-9.309 9.309zM461.731 206.895h-147.084c-5.585 0-9.309-4.655-9.309-9.309v-89.367c0-5.585 3.724-9.309 9.309-9.309h148.015c4.655 0 9.309 3.724 9.309 9.309v89.367c-0.931 4.655-4.655 9.309-10.24 9.309zM968.145 860.393h-259.724c-5.585 0-9.309-3.724-9.309-9.309v-194.56c0-4.655 3.724-9.309 9.309-9.309h68.887c5.585 0 9.309 4.655 9.309 9.309v19.549c0 4.655 3.724 9.309 9.309 9.309h172.218c5.585 0 9.309 4.655 9.309 9.309v156.393c0 4.655-3.724 9.309-9.309 9.309zM880.64 647.215h-68.887c-5.585 0-9.309-4.655-9.309-9.309v-19.549c0-4.655-3.724-9.309-9.309-9.309h-83.782c-5.585 0-9.309-4.655-9.309-9.309v-193.629c0-5.585-3.724-9.309-9.309-9.309h-82.851c-4.655 0-9.309 3.724-9.309 9.309v49.338c0 4.655-3.724 9.309-9.309 9.309h-43.753c-5.585 0-9.309-4.655-9.309-9.309v-49.338c0-5.585-4.655-9.309-9.309-9.309h-212.247c-5.585 0-9.309-4.655-9.309-9.309v-134.051c0-5.585 3.724-9.309 9.309-9.309h185.251c4.655 0 9.309-3.724 9.309-9.309v-124.742c0-5.585 4.655-9.309 9.309-9.309h237.382c5.585 0 9.309 3.724 9.309 9.309v38.167c0 5.585 3.724 9.309 9.309 9.309h43.753c5.585 0 9.309-3.724 9.309-9.309v-38.167c0-5.585 3.724-9.309 9.309-9.309h43.753c5.585 0 9.309 3.724 9.309 9.309v527.825c0 4.655-4.655 9.309-9.309 9.309z" />
<glyph unicode="&#xe927;" glyph-name="like" d="M901.12 448c110.778-2.793 98.676-183.389-37.236-154.531 96.815-2.793 102.4-159.185-6.516-154.531-1.862-8.378 8.378-12.102 12.102-18.618 22.342-36.305 5.585-90.298-26.996-108.916-26.065-13.964-63.302-16.756-97.745-20.48-256.931-30.72-535.273 30.72-697.251 108.916 0 114.502 0 229.935 0 344.436 18.618 16.756 40.029 26.996 58.647 40.029 120.087 82.851 217.833 201.076 269.033 356.538 11.171 33.513 29.789 68.887 70.749 72.611 47.476 4.655 82.851-32.582 85.644-70.749 0.931-14.895-3.724-34.444-6.516-52.131-2.793-16.756-5.585-34.444-8.378-50.269-8.378-53.993-30.72-120.087 18.618-135.913 19.549-6.516 59.578-1.862 94.022-1.862 60.509 0 126.604 0 189.905 0 59.578 0 107.985 5.585 135.913-20.48 43.753-42.822 20.48-133.12-53.993-134.051z" />
<glyph unicode="&#xe928;" glyph-name="line-silhouette" d="M977.455 514.095c0 208.524-208.524 377.949-465.455 377.949-256.931-0.931-465.455-170.356-465.455-377.949 0-187.113 165.702-343.505 389.12-373.295 14.895-2.793 35.375-10.24 40.96-23.273 4.655-12.102 2.793-29.789 1.862-41.891 0 0-5.585-32.582-6.516-40.029-1.862-12.102-9.309-45.615 40.029-25.135s268.102 158.255 365.847 269.964v0c67.025 74.473 99.607 149.876 99.607 233.658zM329.542 390.284h-92.16c-13.033 0-24.204 11.171-24.204 24.204v184.32c0 13.033 11.171 24.204 24.204 24.204s24.204-11.171 24.204-24.204v-160.116h67.956c13.964 0 24.204-11.171 24.204-24.204 0-13.964-10.24-24.204-24.204-24.204zM425.425 414.487c0-13.033-11.171-24.204-24.204-24.204s-24.204 11.171-24.204 24.204v184.32c0 13.033 11.171 24.204 24.204 24.204s24.204-11.171 24.204-24.204v-184.32zM647.913 414.487c0-10.24-6.516-19.549-16.756-23.273-2.793-0.931-4.655-0.931-7.447-0.931-7.447 0-14.895 3.724-19.549 9.309l-94.953 129.396v-114.502c0-13.964-11.171-24.204-24.204-24.204s-24.204 11.171-24.204 24.204v184.32c0 10.24 6.516 19.549 16.756 23.273 2.793 0.931 4.655 0.931 7.447 0.931 7.447 0 14.895-3.724 19.549-10.24l94.953-127.535v113.571c0 13.033 11.171 24.204 24.204 24.204s24.204-11.171 24.204-24.204v-184.32zM797.789 530.851c13.033 0 24.204-11.171 24.204-24.204s-11.171-24.204-24.204-24.204h-67.956v-43.753h67.956c13.033 0 24.204-11.171 24.204-24.204s-11.171-24.204-24.204-24.204h-92.16c-13.033 0-24.204 11.171-24.204 24.204v184.32c0 13.033 11.171 24.204 24.204 24.204h92.16c13.033 0 24.204-11.171 24.204-24.204s-11.171-24.204-24.204-24.204h-67.956v-43.753h67.956z" />
<glyph unicode="&#xe929;" glyph-name="line" d="M448.698 551.331v-134.982c0-10.24-8.378-17.687-17.687-17.687s-17.687 8.378-17.687 17.687v134.982c0 10.24 8.378 17.687 17.687 17.687 10.24 0 17.687-8.378 17.687-17.687zM379.811 434.036h-49.338v117.295c0 9.309-7.447 17.687-17.687 17.687-9.309 0-17.687-7.447-17.687-17.687v-134.982c0-9.309 7.447-17.687 17.687-17.687h67.025c9.309 0 17.687 8.378 17.687 17.687s-7.447 17.687-17.687 17.687zM592.989 569.018c-9.309 0-17.687-7.447-17.687-17.687v-83.782l-68.887 94.022c-2.793 4.655-8.378 7.447-13.964 7.447-1.862 0-3.724 0-5.585-0.931-7.447-1.862-12.102-9.309-12.102-16.756v-134.982c0-9.309 9.309-17.687 18.618-17.687s17.687 7.447 17.687 17.687v83.782l68.887-94.022c2.793-4.655 8.378-7.447 13.964-7.447 1.862 0 3.724 0 5.585 0.931 7.447 1.862 12.102 9.309 12.102 16.756l-0.931 134.982c0 9.309-7.447 17.687-17.687 17.687zM977.455 744.029l-0.931-592.989c0-93.091-75.404-168.495-168.495-168.495l-592.989 0.931c-93.091 0-168.495 75.404-168.495 168.495l0.931 592.989c0 93.091 75.404 168.495 168.495 168.495l592.989-0.931c93.091 0 168.495-75.404 168.495-168.495zM850.851 488.96c0 151.738-151.738 274.618-338.851 274.618s-338.851-122.88-338.851-274.618c0-135.913 121.018-249.484 283.927-271.825 11.171-2.793 26.065-7.447 29.789-16.756 3.724-8.378 1.862-22.342 0.931-30.72 0 0-3.724-24.204-4.655-28.858-1.862-8.378-6.516-33.513 29.789-18.618s195.491 114.502 266.24 196.422c48.407 54.924 71.68 109.847 71.68 170.356zM720.524 466.618c9.309 0 17.687 7.447 17.687 17.687 0 9.309-7.447 17.687-17.687 17.687h-50.269v31.651h49.338c9.309 0 17.687 7.447 17.687 17.687 0 9.309-7.447 17.687-17.687 17.687h-67.025c-9.309 0-17.687-7.447-17.687-17.687v-134.051c0-9.309 7.447-17.687 17.687-17.687h67.025c9.309 0 17.687 7.447 17.687 17.687 0 9.309-7.447 17.687-17.687 17.687h-49.338v31.651h50.269z" />
<glyph unicode="&#xe92a;" glyph-name="link-outbound" d="M253.207 886.458v-673.047h724.247v673.047h-724.247zM864.815 326.982h-498.967v340.713h498.036l0.931-340.713zM864.815 9.542v112.64h-705.629v547.375h-112.64v-660.015h818.269z" />
<glyph unicode="&#xe92b;" glyph-name="link" d="M286.72 575.535c16.756 16.756 36.305 30.72 55.855 41.891 111.709 61.44 256 28.858 327.68-80.058l-87.505-87.505c-25.135 56.785-86.575 89.367-148.945 75.404-23.273-5.585-45.615-16.756-63.302-34.444l-166.633-166.633c-50.269-50.269-50.269-133.12 0-184.32s133.12-50.269 184.32 0l51.2 51.2c46.545-18.618 96.815-26.065 146.153-22.342l-113.571-113.571c-97.745-97.745-255.069-97.745-352.815 0s-97.745 255.069 0 352.815l167.564 167.564zM552.029 840.844l-113.571-114.502c49.338 3.724 99.607-3.724 146.153-22.342l51.2 51.2c50.269 50.269 133.12 50.269 184.32 0s50.269-133.12 0-183.389l-167.564-166.633c-51.2-51.2-133.12-50.269-184.32 0-12.102 12.102-22.342 26.065-27.927 40.96l-86.575-87.505c9.309-13.964 18.618-26.065 30.72-38.167 31.651-31.651 71.68-54.924 117.295-66.095 59.578-13.964 123.811-6.516 178.735 24.204 20.48 11.171 39.098 25.135 55.855 41.891l166.633 166.633c97.745 97.745 97.745 255.069 0 352.815-95.884 97.745-254.138 97.745-350.953 0.931z" />
<glyph unicode="&#xe92c;" glyph-name="login-facebook" d="M512 913.455c-256.931 0-465.455-208.524-465.455-465.455s208.524-465.455 465.455-465.455 465.455 208.524 465.455 465.455-208.524 465.455-465.455 465.455zM649.775 639.767c0 0-46.545 0-65.164 0-23.273 0-27.927-9.309-27.927-33.513 0-19.549 0-57.716 0-57.716h93.091l-9.309-100.538h-83.782v-300.684h-120.087v299.753h-62.371v102.4h62.371c0 0 0 14.895 0 80.058 0 75.404 40.029 114.502 129.396 114.502 14.895 0 82.851 0 82.851 0l0.931-104.262z" />
<glyph unicode="&#xe92d;" glyph-name="login-twitter" d="M512 913.455c-256.931 0-465.455-208.524-465.455-465.455s208.524-465.455 465.455-465.455 465.455 208.524 465.455 465.455-208.524 465.455-465.455 465.455zM745.658 528.058c6.516-151.738-106.124-321.164-307.2-321.164-60.509 0-117.295 17.687-165.702 48.407 57.716-6.516 114.502 9.309 160.116 44.684-47.476 0.931-87.505 31.651-100.538 75.404 16.756-2.793 33.513-1.862 48.407 1.862-52.131 10.24-87.505 56.785-86.575 107.055 14.895-8.378 31.651-13.033 49.338-13.964-48.407 32.582-61.44 95.884-33.513 144.291 53.062-65.164 133.12-107.985 222.487-112.64-15.825 67.956 35.375 132.189 105.193 132.189 30.72 0 59.578-13.033 79.127-34.444 24.204 4.655 47.476 13.964 68.887 26.065-8.378-25.135-25.135-46.545-47.476-59.578 21.411 2.793 42.822 8.378 62.371 16.756-14.895-20.48-33.513-40.029-54.924-54.924z" />
<glyph unicode="&#xe92e;" glyph-name="login" d="M391.913 353.047v-94.022l189.905 188.975-189.905 188.975v-94.022h-345.367v-189.905h345.367zM977.455 786.851v-677.702h-639.535l90.298 90.298h458.938v497.105h-458.938l-90.298 90.298c0 0 639.535 0 639.535 0z" />
<glyph unicode="&#xe92f;" glyph-name="logout" d="M449.629 352.116v189.905h338.851v94.022l188.975-188.975-189.905-188.975v94.022h-337.92zM612.538 284.16c-49.338-63.302-124.742-102.4-209.455-102.4-70.749 0-137.775 27.927-188.044 78.196s-78.196 116.364-78.196 188.044c0 70.749 27.927 137.775 78.196 188.044s116.364 78.196 188.044 78.196c84.713 0 160.116-40.029 209.455-102.4h107.055c-59.578 114.502-178.735 192.698-316.509 192.698-197.353-1.862-356.538-161.047-356.538-357.469s159.185-355.607 355.607-355.607c137.775 0 257.862 78.196 316.509 192.698 0.931 0-106.124 0-106.124 0z" />
<glyph unicode="&#xe930;" glyph-name="mail" d="M970.938 744.029c-3.724 20.48-9.309 39.098-18.618 57.716s-22.342 35.375-37.236 50.269c-14.895 13.964-30.72 27.927-50.269 37.236-18.618 9.309-37.236 14.895-57.716 18.618-18.618 3.724-40.029 4.655-60.509 5.585-7.447 0-13.033 0-27.927 0-13.964 0-26.065 0-34.444 0h-345.367c-8.378 0-20.48 0-34.444 0-14.895 0-20.48 0-27.927 0-20.48 0-41.891-1.862-60.509-5.585-20.48-3.724-39.098-9.309-57.716-18.618s-35.375-22.342-50.269-37.236c-13.964-14.895-27.927-30.72-37.236-50.269-9.309-18.618-14.895-37.236-18.618-57.716-3.724-18.618-4.655-40.029-5.585-60.509 0-7.447 0-13.033 0-27.927 0-13.964 0-26.065 0-34.444v-345.367c0-8.378 0-20.48 0-34.444 0-14.895 0-20.48 0-27.927 0-20.48 1.862-41.891 5.585-60.509 3.724-21.411 9.309-40.029 18.618-58.647s23.273-35.375 37.236-50.269c14.895-13.964 30.72-27.927 50.269-37.236 18.618-9.309 37.236-14.895 57.716-18.618 18.618-3.724 40.029-4.655 60.509-5.585 7.447 0 13.033 0 27.927 0 13.964 0 26.065 0 34.444 0h345.367c8.378 0 20.48 0 34.444 0 14.895 0 20.48 0 27.927 0 20.48 0 41.891 1.862 60.509 5.585 20.48 3.724 39.098 9.309 57.716 18.618s35.375 22.342 50.269 37.236c13.964 14.895 26.996 30.72 37.236 50.269 9.309 18.618 14.895 37.236 18.618 57.716 3.724 18.618 4.655 40.029 5.585 60.509 0 7.447 0 13.033 0 27.927 0 13.964 0 26.065 0 34.444v346.298c0 8.378 0 20.48 0 34.444 0 14.895 0 20.48 0 27.927 0 20.48-1.862 41.891-5.585 60.509zM808.96 651.869c0 0-209.455-209.455-229.004-229.004-67.956-67.956-69.818-69.818-140.567 0.931-22.342 22.342-227.142 227.142-227.142 227.142l596.713 0.931zM202.007 641.629l184.32-192.698-184.32-188.975v381.673zM213.178 244.131l186.182 192.698 26.996-26.996c36.305-36.305 57.716-57.716 84.713-57.716 26.065 0 45.615 19.549 82.851 56.785l32.582 32.582 189.905-197.353h-603.229zM821.993 259.956l-184.32 188.975 184.32 192.698v-381.673z" />
<glyph unicode="&#xe931;" glyph-name="man" d="M976.524 6.749l-23.273 93.091c-11.171 45.615-44.684 81.92-88.436 95.884l-170.356 56.785c-41.891 17.687-60.509 84.713-65.164 109.847 31.651 26.065 52.131 64.233 56.785 105.193-0.931 7.447 0.931 13.964 4.655 19.549 5.585 1.862 11.171 5.585 13.033 11.171 11.171 26.996 18.618 55.855 20.48 84.713 0 1.862 0 2.793-0.931 4.655-2.793 11.171-9.309 21.411-18.618 27.927v102.4c0 62.371-18.618 88.436-39.098 103.331-2.793 31.651-35.375 92.16-153.6 92.16-105.193-4.655-189.905-88.436-193.629-193.629v-102.4c-9.309-6.516-15.825-16.756-18.618-27.927 0-1.862-0.931-2.793-0.931-4.655 2.793-28.858 9.309-57.716 20.48-84.713 1.862-5.585 6.516-9.309 11.171-11.171 1.862-0.931 6.516-6.516 6.516-20.48 4.655-40.96 25.135-79.127 57.716-105.193-3.724-25.135-23.273-92.16-63.302-108.916l-172.218-56.785c-43.753-14.895-77.265-51.2-88.436-95.884l-23.273-93.091c-2.793-10.24 3.724-20.48 13.964-23.273 1.862 0 2.793-0.931 4.655-0.931h891.811c11.171 0 19.549 8.378 19.549 19.549 0 0 0 0.931-0.931 2.793z" />
<glyph unicode="&#xe932;" glyph-name="map" d="M505.484 872.495c-110.778 0-200.145-89.367-200.145-200.145 0-164.771 157.324-181.527 200.145-431.942 42.822 250.415 200.145 268.102 200.145 431.942 0 110.778-89.367 200.145-200.145 200.145zM505.484 605.324c-40.029 0-71.68 32.582-71.68 71.68 0 40.029 32.582 71.68 71.68 71.68s71.68-32.582 71.68-71.68-32.582-71.68-71.68-71.68zM977.455 23.505l-259.724 94.022-211.316-94.022-211.316 94.022-248.553-94.022 152.669 303.476 170.356 74.473c12.102-17.687 24.204-37.236 34.444-59.578-37.236-15.825-5.585-1.862-155.462-67.025l-63.302-126.604 105.193 40.029 61.44 108.916-24.204-118.225 161.047-72.611 17.687 81.92 20.48-81.92 161.978 72.611-25.135 121.949 60.509-113.571 115.433-41.891-65.164 129.396-167.564 70.749c10.24 21.411 22.342 40.96 34.444 58.647l183.389-77.265 152.669-303.476z" />
<glyph unicode="&#xe933;" glyph-name="matome" d="M337.92 341.876l-115.433 94.953-116.364-94.953v571.578h231.796v-571.578zM730.764 409.833h-325.818v-67.956h325.818c0 0.931 0 67.956 0 67.956zM730.764 557.847h-324.887v-67.956h324.887v67.956zM405.876 913.455v-90.298h421.702c0 0 0-420.771 0-492.451 0-143.36-175.942-85.644-175.942-85.644s53.993-172.218-79.127-172.218c-72.611 0-108.916 0-376.087 0v255.069l-90.298-73.542v-271.825h467.316c153.6 0 344.436 201.076 344.436 339.782v591.127h-512zM405.876 637.905h324.887v67.956h-324.887v-67.956z" />
<glyph unicode="&#xe934;" glyph-name="member" d="M439.389 290.676c89.367 20.48 171.287 38.167 131.258 114.502-121.949 230.865-32.582 353.745 96.815 353.745 131.258 0 218.764-127.535 96.815-353.745-40.96-76.335 44.684-94.022 131.258-114.502 77.265-17.687 81.92-55.855 81.92-121.018v-31.651h-620.916c0 84.713-6.516 132.189 82.851 152.669zM46.545 138.007h232.727c-0.931 254.138 116.364 143.36 116.364 345.367 0 78.196-51.2 120.087-116.364 120.087-96.815 0-163.84-92.16-72.611-265.309 29.789-56.785-31.651-70.749-98.676-85.644-57.716-13.964-61.44-41.891-61.44-91.229 0 0 0-23.273 0-23.273z" />
<glyph unicode="&#xe935;" glyph-name="menu" d="M977.455 658.385h-930.909v146.153h930.909v-146.153zM977.455 522.473h-930.909v-147.084h930.909v147.084zM977.455 239.476h-930.909v-147.084h930.909v147.084z" />
<glyph unicode="&#xe936;" glyph-name="museum" d="M510.138 913.455c0.931 0 2.793 0 3.724 0 129.396-66.095 270.895-136.844 406.807-205.731 20.48-10.24 51.2-18.618 56.785-38.167 0-16.756 0-33.513 0-51.2-3.724-37.236-69.818-26.996-121.949-26.996-229.935 0-456.145 0-688.873 0-53.062 0-112.64-11.171-120.087 26.996 0 16.756 0 33.513 0 51.2 3.724 10.24 11.171 14.895 18.618 19.549 33.513 21.411 73.542 35.375 110.778 54.924 110.778 55.855 229.004 116.364 334.196 169.425zM335.127 555.055c2.793-39.098-3.724-68.887-36.305-72.611-0.931-107.055 2.793-217.833-1.862-322.095-47.476 0-94.953 0-141.498 0 0 107.055 0 213.178 0 320.233-3.724 5.585-11.171 4.655-16.756 7.447-17.687 9.309-25.135 36.305-18.618 67.025 70.749 0 142.429 0 215.040 0zM619.055 555.055c3.724-40.029-2.793-69.818-36.305-72.611 0-107.055 0-214.109 0-322.095-47.476 0-94.953 0-141.498 0 0 107.055 0 213.178 0 320.233-13.033 6.516-26.065 8.378-32.582 21.411s-2.793 27.927-3.724 47.476c0 2.793 0 5.585 1.862 5.585 70.749 0 142.429 0 212.247 0zM906.705 555.055c2.793-39.098-2.793-69.818-36.305-72.611 0-107.055 0-214.109 0-322.095-47.476 0.931-99.607-2.793-143.36 1.862 0 106.124 0 212.247 0 318.371-4.655 6.516-12.102 3.724-18.618 7.447-15.825 9.309-22.342 38.167-16.756 67.025 71.68 0 143.36 0 215.040 0zM977.455 97.047c0-28.858 0-57.716 0-87.505-5.585-13.033-13.964-22.342-26.996-26.996-292.305 0-584.611 0-875.985 0-13.033 5.585-22.342 13.964-26.996 26.996 0 28.858 0 57.716 0 87.505 13.033 42.822 79.127 28.858 134.982 28.858 221.556 0 443.113 0 663.738 0 54.924 0 123.811 12.102 131.258-28.858z" />
<glyph unicode="&#xe937;" glyph-name="new" d="M316.509-17.455h-242.036v234.589h242.036v-234.589zM632.087 328.844h-244.829v-346.298h243.898l0.931 346.298zM944.873 480.582h-243.898v-498.036h243.898v498.036zM949.527 913.455l-198.284-34.444 43.753-43.753-297.891-285.789-107.985 102.4-302.545-302.545 74.473-73.542 225.28 225.28 111.709-105.193 371.433 363.055 41.891-42.822 38.167 197.353z" />
<glyph unicode="&#xe938;" glyph-name="night" d="M786.618 211.549c-218.764 0-395.636 176.873-395.636 395.636 0 103.331 40.029 197.353 104.262 267.171-229.004-18.618-409.6-211.316-409.6-444.975 0-246.691 200.145-446.836 446.836-446.836 179.665 0 335.127 106.124 405.876 259.724-46.545-19.549-97.745-30.72-151.738-30.72zM590.196 642.56l88.436 45.615 87.505-45.615-16.756 97.745 71.68 69.818-98.676 13.964-43.753 89.367-44.684-89.367-97.745-13.964 70.749-69.818zM781.964 543.884l-15.825 32.582-16.756-32.582-36.305-5.585 26.065-26.065-5.585-36.305 32.582 16.756 32.582-16.756-6.516 36.305 26.996 26.065zM591.127 507.578l-23.273 47.476-23.273-47.476-51.2-7.447 37.236-36.305-9.309-52.131 46.545 24.204 46.545-24.204-8.378 52.131 37.236 36.305z" />
<glyph unicode="&#xe939;" glyph-name="no-smoking" d="M512 913.455c-256 0-465.455-209.455-465.455-465.455s209.455-465.455 465.455-465.455c256 0 465.455 209.455 465.455 465.455s-209.455 465.455-465.455 465.455zM101.469 448c0 103.331 38.167 198.284 101.469 270.895l188.975-188.975h-234.589v-163.84h397.498l227.142-227.142c-71.68-63.302-166.633-101.469-269.964-101.469-226.211 0-410.531 184.32-410.531 410.531zM500.829 421.004h-70.749v54.924h15.825l54.924-54.924zM523.171 474.996h124.742v-54.924h-70.749l-53.993 54.924zM212.247 421.004v54.924h163.84v-54.924h-163.84zM821.062 177.105l-188.975 188.975h70.749v163.84h-233.658l-228.073 227.142c72.611 63.302 167.564 101.469 270.895 101.469 226.211 0 410.531-184.32 410.531-410.531 0-103.331-38.167-198.284-101.469-270.895zM757.76 529.92h54.924v-163.84h-54.924v163.84zM702.836 693.76h-108.916c-29.789 0-54.924 24.204-54.924 54.924h-54.924c0-60.509 49.338-108.916 108.916-108.916h108.916c29.789 0 54.924-24.204 54.924-54.924h54.924c0 59.578-48.407 108.916-108.916 108.916z" />
<glyph unicode="&#xe93a;" glyph-name="pinterest" d="M512 913.455c-256.931 0-465.455-208.524-465.455-465.455 0-197.353 122.88-365.847 296.029-433.804-3.724 37.236-7.447 93.091 1.862 133.12 8.378 36.305 54.924 231.796 54.924 231.796s-13.964 27.927-13.964 68.887c0 65.164 37.236 112.64 83.782 112.64 40.029 0 58.647-29.789 58.647-65.164 0-40.029-25.135-99.607-38.167-154.531-11.171-46.545 23.273-83.782 68.887-83.782 82.851 0 146.153 87.505 146.153 213.178 0 111.709-80.058 188.975-194.56 188.975-132.189 0-210.385-99.607-210.385-202.007 0-40.029 15.825-82.851 34.444-106.124 3.724-4.655 4.655-8.378 2.793-13.033l-13.033-53.062c-1.862-8.378-6.516-10.24-15.825-6.516-57.716 26.996-94.953 111.709-94.953 180.596 0 147.084 107.055 282.065 307.2 282.065 161.047 0 286.72-115.433 286.72-269.033 0-160.116-101.469-289.513-241.105-289.513-47.476 0-91.229 24.204-107.055 53.062l-28.858-110.778c-10.24-40.029-39.098-91.229-57.716-121.949 43.753-13.033 90.298-20.48 137.775-20.48 256.931 0 465.455 208.524 465.455 465.455 1.862 256.931-206.662 465.455-463.593 465.455z" />
<glyph unicode="&#xe93b;" glyph-name="plan" d="M377.018 354.909h-162.909v61.44h162.909v-61.44zM977.455 763.578l-330.473-329.542-136.844 136.844 330.473 330.473 136.844-137.775zM720.524 405.178c0-40.029 0-72.611 0-87.505 0-133.12-164.771-80.058-164.771-80.058s50.269-161.047-73.542-161.047c-67.956 0-101.469 0-350.953 0v701.905h485.004l84.713 84.713h-654.429v-869.469h436.596c144.291 0 321.164 188.044 321.164 317.44v178.735l-83.782-84.713zM471.971 528.989l133.12-133.12-175.942-40.029 42.822 173.149z" />
<glyph unicode="&#xe93c;" glyph-name="plane" d="M964.422 720.756c-34.444 58.647-121.949 65.164-180.596 30.72l-213.178-122.88-129.396 70.749 8.378 4.655c13.964 8.378 18.618 26.065 10.24 40.029s-26.065 18.618-40.029 10.24l-38.167-21.411-116.364 63.302c-8.378 4.655-23.273 4.655-31.651 0l-78.196-45.615c-8.378-4.655-9.309-14.895-1.862-21.411l253.207-223.418-208.524-139.636c0 0-61.44 26.996-95.884 43.753s-65.164-16.756-52.131-38.167c13.033-21.411 60.509-104.262 60.509-104.262s-10.24-25.135-1.862-40.029c9.309-15.825 35.375-18.618 35.375-18.618s47.476-83.782 60.509-105.193 56.785-13.033 59.578 26.065c2.793 39.098 10.24 105.193 10.24 105.193l225.28 109.847 67.025-330.473c1.862-9.309 10.24-13.964 19.549-8.378l78.196 45.615c8.378 4.655 15.825 16.756 15.825 26.996l2.793 132.189 39.098 22.342c13.964 8.378 18.618 26.065 10.24 40.029s-26.065 18.618-40.029 10.24l-8.378-4.655 3.724 148.015 213.178 122.88c58.647 34.444 97.745 112.64 63.302 171.287z" />
<glyph unicode="&#xe93d;" glyph-name="plus" d="M977.455 564.364h-349.091v349.091h-232.727v-349.091h-349.091v-232.727h349.091v-349.091h232.727v349.091h349.091v232.727z" />
<glyph unicode="&#xe93e;" glyph-name="pocket" d="M972.8 807.331c-12.102 33.513-43.753 55.855-79.127 55.855h-762.415c-34.444 0-66.095-22.342-79.127-53.993-3.724-9.309-5.585-19.549-5.585-29.789v-281.135l2.793-55.855c13.033-126.604 79.127-238.313 181.527-315.578 1.862-1.862 3.724-2.793 5.585-3.724l0.931-0.931c54.924-40.029 116.364-67.025 182.458-80.058 30.72-6.516 61.44-9.309 93.091-9.309 28.858 0 57.716 2.793 85.644 7.447 3.724 0.931 6.516 0.931 10.24 1.862 0.931 0 1.862 0.931 2.793 0.931 63.302 13.964 121.949 40.029 175.011 79.127l0.931 0.931c1.862 0.931 3.724 2.793 5.585 3.724 102.4 77.265 167.564 188.044 181.527 315.578l2.793 55.855v280.204c0 9.309-0.931 19.549-4.655 28.858zM775.447 514.095l-218.764-209.455c-12.102-12.102-27.927-17.687-43.753-17.687s-31.651 5.585-43.753 17.687l-219.695 209.455c-25.135 24.204-26.065 65.164-1.862 90.298s65.164 26.065 90.298 1.862l175.011-167.564 175.011 167.564c25.135 24.204 66.095 23.273 90.298-1.862s23.273-65.164-2.793-90.298z" />
<glyph unicode="&#xe93f;" glyph-name="question" d="M506.415 623.942c-33.513 0-59.578-12.102-80.058-35.375s-29.789-58.647-29.789-106.124c0-54.924 13.964-94.953 42.822-118.225 18.618-15.825 40.029-23.273 66.095-23.273 9.309 0 18.618 0.931 27.927 3.724 4.655 0.931 11.171 3.724 18.618 6.516l-40.96 39.098 42.822 44.684 40.96-38.167c6.516 13.033 11.171 24.204 13.033 34.444 3.724 14.895 5.585 31.651 5.585 51.2 0 44.684-9.309 80.058-27.927 104.262-16.756 24.204-43.753 37.236-79.127 37.236zM512 874.356c-245.76 0-465.455-163.84-465.455-388.189 0-79.127 28.858-157.324 79.127-217.833 1.862-70.749-40.029-173.149-77.265-246.691 100.538 18.618 244.829 58.647 309.062 98.676 359.331-87.505 619.985 131.258 619.985 365.847 0 226.211-221.556 388.189-465.455 388.189zM656.291 251.578l-48.407 45.615c-14.895-9.309-27.927-14.895-38.167-18.618-17.687-5.585-40.029-9.309-64.233-9.309-52.131 0-95.884 15.825-130.327 46.545-41.891 37.236-62.371 93.091-62.371 165.702 0 73.542 21.411 129.396 64.233 166.633 34.444 30.72 78.196 46.545 129.396 46.545 52.131 0 95.884-15.825 131.258-48.407 40.96-37.236 61.44-90.298 61.44-158.255 0-35.375-4.655-66.095-13.033-90.298-7.447-23.273-17.687-41.891-31.651-57.716l46.545-43.753-44.684-44.684z" />
<glyph unicode="&#xe940;" glyph-name="rainy" d="M512 737.513c-103.331 0-202.007-36.305-277.411-101.469-74.473-64.233-117.295-151.738-117.295-238.313 0-16.756 13.964-30.72 30.72-30.72h368.64l-0.931-286.72c0-17.687-7.447-33.513-20.48-46.545s-30.72-19.549-49.338-19.549v0c-37.236 0-70.749 30.72-70.749 66.095v23.273c0 11.171-9.309 20.48-20.48 20.48s-20.48-9.309-20.48-20.48v-23.273c0-57.716 50.269-98.676 110.778-98.676v0c27.927 0 55.855 7.447 77.265 26.996 21.411 20.48 33.513 43.753 33.513 72.611l0.931 284.858h319.302c16.756 0 30.72 13.964 30.72 30.72 0 186.182-180.596 340.713-394.705 340.713zM180.596 427.52c8.378 59.578 41.891 117.295 94.022 161.978 64.233 55.855 148.945 86.575 237.382 86.575 165.702 0 312.785-113.571 331.404-248.553 0 0-662.807 0-662.807 0zM234.589 771.956c11.171 0 20.48 9.309 20.48 20.48v80.989c0 11.171-9.309 20.48-20.48 20.48s-20.48-9.309-20.48-20.48v-80.989c0-11.171 9.309-20.48 20.48-20.48zM153.6 630.458c11.171 0 20.48 9.309 20.48 20.48v80.989c0 11.171-9.309 20.48-20.48 20.48s-20.48-9.309-20.48-20.48v-80.989c0-12.102 9.309-20.48 20.48-20.48zM376.087 792.436c11.171 0 20.48 9.309 20.48 20.48v80.058c0 11.171-9.309 20.48-20.48 20.48s-20.48-9.309-20.48-20.48v-80.989c0-11.171 9.309-19.549 20.48-19.549zM538.065 792.436c11.171 0 20.48 9.309 20.48 20.48v80.058c0 11.171-9.309 20.48-20.48 20.48s-20.48-9.309-20.48-20.48v-80.989c0-11.171 9.309-19.549 20.48-19.549zM719.593 751.476c11.171 0 20.48 9.309 20.48 20.48v80.989c0 11.171-9.309 20.48-20.48 20.48s-20.48-9.309-20.48-20.48v-80.989c0.931-11.171 9.309-20.48 20.48-20.48zM881.571 610.909c11.171 0 20.48 9.309 20.48 20.48v80.989c0 11.171-9.309 20.48-20.48 20.48s-20.48-9.309-20.48-20.48v-80.989c0.931-11.171 9.309-20.48 20.48-20.48zM821.062 771.956c11.171 0 20.48 9.309 20.48 20.48v80.989c0 11.171-9.309 20.48-20.48 20.48s-20.48-9.309-20.48-20.48v-80.989c0-11.171 9.309-20.48 20.48-20.48z" />
<glyph unicode="&#xe941;" glyph-name="rakuten" d="M530.618 602.531h-65.164v-148.015h65.164c2.793 0 4.655 0 7.447 0 37.236 3.724 66.095 35.375 66.095 73.542 0 40.96-32.582 74.473-73.542 74.473zM523.171 913.455c-256.931 0-465.455-208.524-465.455-465.455s208.524-465.455 465.455-465.455 465.455 208.524 465.455 465.455-208.524 465.455-465.455 465.455zM746.589 198.516h-115.433c0 0-112.64 155.462-116.364 161.047h-49.338v-161.047h-94.953v498.967h160.116c93.091 0 168.495-76.335 168.495-169.425 0-60.509-33.513-116.364-84.713-145.222 8.378-12.102 132.189-184.32 132.189-184.32v0z" />
<glyph unicode="&#xe942;" glyph-name="ranking" d="M960.698 718.895c-10.24 10.24-23.273 15.825-38.167 15.825h-160.116v53.993c0 24.204-8.378 45.615-26.065 63.302s-38.167 26.065-63.302 26.065h-322.095c-24.204 0-45.615-8.378-63.302-26.065s-26.065-38.167-26.065-63.302v-53.993h-161.047c-14.895 0-27.927-5.585-38.167-15.825s-15.825-23.273-15.825-38.167v-71.68c0-26.065 7.447-53.062 23.273-80.058s36.305-51.2 62.371-72.611 58.647-40.029 96.815-54.924c38.167-14.895 78.196-23.273 120.087-25.135 15.825-20.48 33.513-38.167 53.062-53.062 13.964-13.033 24.204-26.065 29.789-40.96 5.585-13.964 8.378-30.72 8.378-50.269 0-20.48-5.585-37.236-16.756-51.2s-29.789-20.48-54.924-20.48c-27.927 0-53.062-8.378-74.473-25.135s-32.582-38.167-32.582-64.233v-35.375c0-5.585 1.862-9.309 4.655-13.033 3.724-3.724 7.447-4.655 13.033-4.655h465.455c5.585 0 9.309 1.862 13.033 4.655 3.724 3.724 4.655 7.447 4.655 13.033v35.375c0 26.065-11.171 47.476-32.582 64.233s-46.545 25.135-74.473 25.135c-25.135 0-42.822 6.516-54.924 20.48-11.171 13.964-16.756 30.72-16.756 51.2 0 18.618 2.793 35.375 8.378 50.269 5.585 13.964 14.895 27.927 29.789 40.96 19.549 14.895 37.236 32.582 53.062 53.062 41.891 1.862 81.92 10.24 121.018 25.135 38.167 14.895 70.749 32.582 96.815 54.924 26.065 21.411 47.476 45.615 62.371 72.611 15.825 26.996 23.273 53.993 23.273 80.058v71.68c-1.862 14.895-6.516 27.927-17.687 38.167zM171.287 518.749c-35.375 31.651-53.062 61.44-53.062 90.298v53.993h142.429c0-78.196 13.964-147.084 40.96-207.593-51.2 10.24-94.953 31.651-130.327 63.302zM904.844 609.047c0-28.858-17.687-59.578-53.062-90.298s-79.127-52.131-132.189-63.302c27.927 60.509 40.96 129.396 40.96 207.593h143.36l0.931-53.993z" />
<glyph unicode="&#xe943;" glyph-name="report" d="M514.793-17.455c-2.793 0-4.655 0-7.447 0-15.825 3.724-31.651 15.825-47.476 26.065-192.698 120.087-304.407 320.233-336.058 598.575-4.655 39.098-15.825 107.985 1.862 128.465 13.033 15.825 48.407 13.033 73.542 20.48 52.131 15.825 102.4 52.131 152.669 82.851 21.411 13.033 46.545 27.927 75.404 41.891 25.135 12.102 54.924 32.582 83.782 32.582 26.065 0 56.785-18.618 84.713-33.513 28.858-14.895 54.924-27.927 77.265-41.891 50.269-32.582 99.607-67.025 156.393-82.851 24.204-6.516 57.716-6.516 69.818-24.204 14.895-21.411 4.655-87.505 0-126.604-15.825-129.396-51.2-242.967-95.884-333.265-28.858-58.647-71.68-119.156-119.156-166.633-44.684-44.684-108.916-93.091-169.425-121.949zM467.316 683.52c4.655-107.055 2.793-221.556 11.171-324.887 21.411 0 42.822 0 64.233 0 8.378 92.16 3.724 198.284 7.447 294.167 0.931 12.102 4.655 23.273 0 34.444-22.342 4.655-52.131 0.931-77.265 1.862-2.793-0.931-4.655-2.793-5.585-5.585zM461.731 276.713c-13.033-67.956 88.436-75.404 99.607-22.342 8.378 41.891-28.858 60.509-56.785 56.785-25.135-3.724-40.029-18.618-42.822-34.444z" />
<glyph unicode="&#xe944;" glyph-name="root" d="M729.833 321.396c-16.756 0-33.513 3.724-49.338 10.24l18.618 42.822c10.24-4.655 20.48-6.516 30.72-6.516 8.378 0 17.687 1.862 26.065 4.655l15.825-43.753c-13.964-5.585-27.927-7.447-41.891-7.447zM296.96 322.327c-14.895 0-29.789 2.793-43.753 7.447l16.756 43.753c8.378-2.793 17.687-4.655 26.996-4.655 10.24 0 20.48 1.862 29.789 5.585l17.687-42.822c-14.895-6.516-31.651-9.309-47.476-9.309zM640.465 353.047l-66.095 37.236 23.273 40.96 66.095-37.236-23.273-40.96zM384.465 353.978l-24.204 40.029 65.164 39.098 24.204-40.029-65.164-39.098zM539.927 409.833c-9.309 3.724-19.549 6.516-30.72 6.516-9.309 0-18.618-1.862-26.996-4.655l-15.825 43.753c13.964 4.655 27.927 7.447 42.822 7.447 16.756 0 32.582-2.793 48.407-9.309l-17.687-43.753zM830.371 416.349c-21.411 0-38.167-16.756-38.167-38.167s16.756-38.167 38.167-38.167c21.411 0 38.167 16.756 38.167 38.167 0.931 21.411-16.756 38.167-38.167 38.167zM193.629 416.349c-21.411 0-38.167-16.756-38.167-38.167s16.756-38.167 38.167-38.167 38.167 16.756 38.167 38.167c0 21.411-16.756 38.167-38.167 38.167zM977.455 765.44c0 81.92-66.095 148.015-147.084 148.015s-147.084-66.095-147.084-147.084c0-121.018 115.433-134.051 147.084-317.44 31.651 183.389 147.084 196.422 147.084 316.509zM777.309 769.164c0 28.858 23.273 53.062 53.062 53.062 28.858 0 53.062-23.273 53.062-53.062s-23.273-53.062-53.062-53.062c-28.858 0.931-53.062 24.204-53.062 53.062zM909.498 487.098v-323.956l-169.425-92.16v203.869h-33.513v-200.145l-185.251 120.087v170.356h-32.582v-170.356l-179.665-120.087v200.145h-33.513v-203.869l-160.116 92.16v512.931l160.116-85.644v-171.287h33.513v169.425l180.596 93.091v-177.804h31.651v178.735l160.116-80.989c-23.273 28.858-47.476 62.371-59.578 107.055l-117.295 59.578-211.316-110.778-246.691 131.258v-664.669l246.691-141.498 212.247 140.567 215.971-140.567 256 141.498v475.695c-1.862-1.862-2.793-3.724-4.655-5.585-24.204-30.72-47.476-59.578-63.302-107.055z" />
<glyph unicode="&#xe945;" glyph-name="rss" d="M864.815 912.524h-705.629c-62.371 0-112.64-50.269-112.64-112.64v-704.698c0-62.371 50.269-112.64 112.64-112.64h704.698c62.371 0 112.64 50.269 112.64 112.64v704.698c0.931 62.371-49.338 112.64-111.709 112.64zM274.618 121.251c-48.407 0-88.436 39.098-88.436 88.436s39.098 88.436 88.436 88.436 88.436-39.098 88.436-88.436-40.029-88.436-88.436-88.436zM485.935 121.251c-1.862 163.84-134.982 296.96-299.753 298.822v130.327c236.451-0.931 428.218-192.698 430.080-429.149h-130.327zM706.56 121.251c0 138.705-54.924 269.964-152.669 367.709-98.676 98.676-229.004 152.669-367.709 153.6v130.327c359.331-0.931 650.705-292.305 651.636-651.636h-131.258z" />
<glyph unicode="&#xe946;" glyph-name="search" d="M946.735 134.284l-193.629 193.629c37.236 58.647 59.578 128.465 59.578 203.869 0 210.385-171.287 381.673-381.673 381.673s-381.673-171.287-381.673-381.673 171.287-381.673 381.673-381.673c70.749 0 137.775 19.549 194.56 53.993l194.56-194.56c83.782-83.782 209.455 41.891 126.604 124.742zM168.495 530.851c0 145.222 118.225 263.447 263.447 263.447s262.516-118.225 262.516-263.447-118.225-262.516-263.447-262.516c-144.291 0-262.516 118.225-262.516 262.516z" />
<glyph unicode="&#xe947;" glyph-name="season" d="M46.545 421.935l388.189-94.022 302.545 296.029-337.92-216.902-156.393 37.236 628.364 314.647-170.356-608.815-180.596 167.564-98.676-120.087v67.956l-69.818 15.825v-273.687l175.011 211.316 209.455-194.56 241.105 863.884z" />
<glyph unicode="&#xe948;" glyph-name="setting" d="M450.56 913.455c39.098 0 78.196 0 117.295 0 9.309-44.684 14.895-93.091 25.135-136.844 29.789-13.033 64.233-21.411 89.367-39.098 41.891 23.273 78.196 52.131 114.502 80.989 28.858-27.927 59.578-53.993 83.782-86.575-26.996-36.305-53.993-72.611-78.196-111.709 12.102-30.72 28.858-56.785 36.305-92.16 46.545-7.447 91.229-16.756 139.636-22.342 0-39.098 0-78.196 0-117.295-45.615-7.447-88.436-17.687-136.844-22.342-13.033-30.72-22.342-65.164-39.098-92.16 23.273-41.891 52.131-78.196 80.989-114.502-27.927-28.858-53.993-59.578-86.575-83.782-35.375 27.927-72.611 53.993-111.709 78.196-30.72-12.102-55.855-29.789-92.16-36.305-9.309-44.684-15.825-92.16-25.135-136.844-39.098 0-78.196 0-117.295 0-6.516 45.615-13.964 90.298-22.342 134.051-31.651 12.102-64.233 23.273-92.16 39.098-38.167-24.204-75.404-50.269-111.709-78.196-33.513 22.342-55.855 55.855-86.575 80.989 26.065 39.098 54.924 74.473 80.989 114.502-13.964 28.858-30.72 54.924-36.305 92.16-44.684 9.309-92.16 15.825-136.844 25.135 0 39.098 0 78.196 0 117.295 45.615 7.447 90.298 15.825 136.844 22.342 4.655 39.098 24.204 63.302 36.305 94.953-26.996 36.305-52.131 74.473-78.196 111.709 26.996 28.858 54.924 56.785 83.782 83.782 36.305-28.858 73.542-56.785 114.502-80.989 26.065 15.825 53.993 29.789 89.367 36.305 8.378 45.615 15.825 92.16 22.342 139.636zM397.498 565.295c-99.607-94.022-36.305-282.065 114.502-282.065 81.92 0 161.978 63.302 161.978 164.771-0.931 93.091-80.058 168.495-178.735 159.185-44.684-4.655-73.542-19.549-97.745-41.891z" />
<glyph unicode="&#xe949;" glyph-name="shinkansen" d="M920.576 546.304c-141.312 116.736-318.464 181.248-501.76 181.248h-388.096v-438.272h48.128c11.264-22.528 34.816-36.864 61.44-36.864s49.152 15.36 61.44 36.864h157.696c11.264-22.528 34.816-36.864 61.44-36.864s49.152 15.36 61.44 36.864h157.696c11.264-22.528 34.816-36.864 61.44-36.864s49.152 15.36 61.44 36.864h94.208c61.44 0 200.704 51.2 200.704 112.64-3.072 25.6-64.512 83.968-137.216 144.384zM99.328 658.944h320.512c53.248 0 105.472-6.144 156.672-18.432v-77.824c0-29.696 24.576-54.272 54.272-54.272h227.328c6.144-5.12 13.312-9.216 19.456-14.336 25.6-21.504 45.056-38.912 60.416-52.224h-838.656v217.088zM158.72 505.344h74.752c3.072 0 6.144 3.072 6.144 6.144v74.752c0 3.072-3.072 6.144-6.144 6.144h-74.752c-3.072 0-6.144-3.072-6.144-6.144v-74.752c0-4.096 2.048-6.144 6.144-6.144zM294.912 505.344h74.752c3.072 0 6.144 3.072 6.144 6.144v74.752c0 3.072-3.072 6.144-6.144 6.144h-74.752c-3.072 0-6.144-3.072-6.144-6.144v-74.752c0-4.096 3.072-6.144 6.144-6.144zM431.104 505.344h74.752c3.072 0 6.144 3.072 6.144 6.144v74.752c0 3.072-3.072 6.144-6.144 6.144h-74.752c-3.072 0-6.144-3.072-6.144-6.144v-74.752c0-4.096 3.072-6.144 6.144-6.144zM948.224 237.056h-917.504v-68.608h917.504c18.432 0 33.792 15.36 33.792 33.792s-15.36 34.816-33.792 34.816z" />
<glyph unicode="&#xe94a;" glyph-name="shopping" d="M279.273-7.215l-116.364 82.851v550.167l116.364-52.131v-580.887zM356.538 569.018v-586.473l504.553 75.404v583.68l-504.553-72.611zM588.335 874.356c-80.989 0-153.6-78.196-153.6-165.702v-65.164c0-12.102 10.24-20.48 22.342-19.549 9.309 1.862 16.756 9.309 16.756 19.549v65.164c0 66.095 54.924 126.604 114.502 126.604 20.48 0 39.098-7.447 53.993-21.411 16.756-16.756 25.135-40.029 25.135-67.025v-67.956c0-12.102 10.24-20.48 22.342-19.549 9.309 1.862 16.756 9.309 16.756 18.618v67.956c-0.931 75.404-52.131 128.465-118.225 128.465zM340.713 642.56c9.309 1.862 16.756 9.309 16.756 19.549v86.575c0 66.095 54.924 126.604 114.502 126.604l6.516-0.931c13.964 11.171 29.789 19.549 45.615 26.065-15.825 8.378-33.513 13.033-52.131 13.033-80.989 0-153.6-78.196-153.6-165.702v-86.575c0-12.102 10.24-20.48 22.342-18.618z" />
<glyph unicode="&#xe94b;" glyph-name="sleet" d="M400.291 160.349l-139.636-139.636-53.993 54.924 139.636 139.636 53.993-54.924zM444.044 118.458c-26.996 0-48.407-21.411-48.407-48.407s21.411-48.407 48.407-48.407c26.996 0 48.407 21.411 48.407 48.407s-21.411 48.407-48.407 48.407zM977.455 420.073c0-91.229-75.404-165.702-168.495-165.702h-399.36c-60.509 0-112.64 30.72-142.429 77.265h-51.2c-93.091 0-168.495 74.473-168.495 165.702 0 81.92 59.578 148.945 138.705 162.909 6.516 119.156 107.055 214.109 229.935 214.109 69.818 0 132.189-30.72 174.080-78.196 132.189 11.171 242.967-87.505 249.484-213.178 78.196-13.964 137.775-81.92 137.775-162.909zM378.88 582.982c4.655 82.851 53.993 153.6 124.742 188.975-22.342 14.895-51.2 25.135-88.436 25.135-149.876 0-157.324-149.876-155.462-202.007-53.993 2.793-134.982-14.895-134.982-97.745 0-48.407 40.96-88.436 91.229-88.436h26.065c-6.516 92.16 58.647 160.116 136.844 174.080zM900.189 420.073c0 80.058-76.335 101.469-134.982 97.745 8.378 55.855-9.309 202.007-155.462 202.007-149.876 0-157.324-149.876-155.462-202.007-53.993 2.793-134.982-14.895-134.982-97.745 0-48.407 40.96-88.436 91.229-88.436h399.36c49.338 0 90.298 40.029 90.298 88.436zM540.858 215.273c-26.996 0-48.407-21.411-48.407-48.407s21.411-48.407 48.407-48.407 48.407 21.411 48.407 48.407c0 26.996-21.411 48.407-48.407 48.407zM589.265 75.636l54.924-54.924 139.636 139.636-54.924 54.924-139.636-139.636zM686.080 573.673l-57.716-34.444v63.302h-39.098v-63.302l-57.716 34.444-19.549-32.582 57.716-34.444-57.716-34.444 20.48-33.513 56.785 33.513v-63.302h39.098v63.302l56.785-33.513 20.48 33.513-57.716 33.513 57.716 34.444c0 0-19.549 33.513-19.549 33.513z" />
<glyph unicode="&#xe94c;" glyph-name="smile" d="M512 836.189c214.109 0 388.189-174.080 388.189-388.189s-174.080-388.189-388.189-388.189-388.189 174.080-388.189 388.189 174.080 388.189 388.189 388.189zM512 913.455c-256.931 0-465.455-208.524-465.455-465.455s208.524-465.455 465.455-465.455 465.455 208.524 465.455 465.455-208.524 465.455-465.455 465.455zM744.727 370.735h-465.455c13.033-56.785 109.847-155.462 232.727-155.462 121.949 0 219.695 97.745 232.727 155.462zM744.727 525.265l-28.858-19.549c0 0-19.549 37.236-67.956 37.236-46.545 0-67.956-37.236-67.956-37.236l-28.858 19.549c11.171 28.858 46.545 77.265 96.815 77.265 50.269 0.931 85.644-48.407 96.815-77.265zM472.902 525.265l-28.858-19.549c0 0-19.549 37.236-67.956 37.236-46.545 0-67.956-37.236-67.956-37.236l-28.858 19.549c11.171 28.858 46.545 77.265 96.815 77.265 50.269 0.931 86.575-48.407 96.815-77.265z" />
<glyph unicode="&#xe94d;" glyph-name="smoking" d="M157.324 529.92v-163.84h545.513v163.84h-545.513zM647.913 474.996v-54.924l-217.833 0.931v54.924l217.833-0.931zM212.247 421.004v54.924h163.84v-54.924h-163.84zM757.76 529.92h54.924v-163.84h-54.924v163.84zM702.836 693.76h-108.916c-29.789 0-54.924 24.204-54.924 54.924h-54.924c0-60.509 49.338-108.916 108.916-108.916h108.916c29.789 0 54.924-24.204 54.924-54.924h54.924c0 59.578-48.407 108.916-108.916 108.916z" />
<glyph unicode="&#xe94e;" glyph-name="snowly" d="M905.775 251.578l-69.818 40.029 35.375 9.309c13.964 3.724 22.342 18.618 18.618 32.582s-18.618 22.342-32.582 18.618l-86.575-23.273-45.615 26.065 126.604 33.513c13.964 3.724 22.342 18.618 18.618 32.582s-18.618 22.342-32.582 18.618l-177.804-47.476-94.953 55.855 94.953 54.924 177.804-47.476c1.862-0.931 4.655-0.931 6.516-0.931 12.102 0 22.342 7.447 26.065 19.549 3.724 13.964-4.655 28.858-18.618 32.582l-126.604 33.513 45.615 26.065 87.505-23.273c1.862-0.931 4.655-0.931 6.516-0.931 12.102 0 22.342 7.447 26.065 19.549 3.724 13.964-4.655 28.858-18.618 32.582l-35.375 9.309 69.818 40.029c13.033 7.447 16.756 23.273 9.309 36.305s-23.273 16.756-36.305 9.309l-69.818-40.029 9.309 35.375c3.724 13.964-4.655 28.858-18.618 32.582s-28.858-4.655-32.582-18.618l-23.273-86.575-45.615-26.065 33.513 126.604c3.724 13.964-4.655 28.858-18.618 32.582s-28.858-4.655-32.582-18.618l-47.476-177.804-94.953-54.924v109.847l130.327 130.327c10.24 10.24 10.24 26.996 0 37.236s-26.996 10.24-37.236 0l-92.16-92.16v52.131l63.302 63.302c10.24 10.24 10.24 26.996 0 37.236s-26.996 10.24-37.236 0l-26.065-26.065v80.989c-0.931 14.895-13.033 26.996-27.927 26.996s-26.996-12.102-26.996-26.996v-80.058l-26.065 26.065c-10.24 10.24-26.996 10.24-37.236 0s-10.24-26.996 0-37.236l63.302-63.302v-52.131l-92.16 92.16c-10.24 10.24-26.996 10.24-37.236 0s-10.24-26.996 0-37.236l130.327-130.327v-109.847l-94.953 54.924-47.476 177.804c-3.724 13.964-18.618 22.342-32.582 18.618s-22.342-18.618-18.618-32.582l33.513-126.604-45.615 26.065-23.273 86.575c-3.724 13.964-18.618 22.342-32.582 18.618s-22.342-18.618-18.618-32.582l9.309-35.375-69.818 40.029c-13.033 7.447-28.858 2.793-36.305-9.309-7.447-13.033-2.793-28.858 9.309-36.305l69.818-40.029-35.375-9.309c-13.964-3.724-22.342-18.618-18.618-32.582 2.793-12.102 13.964-19.549 26.065-19.549 1.862 0 4.655 0 6.516 0.931l86.575 23.273 45.615-26.065-126.604-33.513c-13.964-3.724-22.342-18.618-18.618-32.582 2.793-12.102 13.964-19.549 26.065-19.549 1.862 0 4.655 0 6.516 0.931l177.804 47.476 94.953-55.855-94.953-54.924-177.804 47.476c-13.964 3.724-28.858-4.655-32.582-18.618s4.655-28.858 18.618-32.582l126.604-33.513-45.615-26.065-86.575 23.273c-13.964 3.724-28.858-4.655-32.582-18.618s4.655-28.858 18.618-32.582l35.375-9.309-69.818-40.029c-13.033-7.447-16.756-23.273-9.309-36.305 4.655-8.378 13.964-13.033 23.273-13.033 4.655 0 9.309 0.931 13.033 3.724l69.818 40.029-9.309-35.375c-3.724-13.964 4.655-28.858 18.618-32.582 1.862-0.931 4.655-0.931 6.516-0.931 12.102 0 22.342 7.447 26.065 19.549l23.273 86.575 45.615 26.065-33.513-126.604c-3.724-13.964 4.655-28.858 18.618-32.582 1.862-0.931 4.655-0.931 6.516-0.931 12.102 0 22.342 7.447 26.065 19.549l47.476 177.804 94.953 54.924v-109.847l-130.327-130.327c-10.24-10.24-10.24-26.996 0-37.236 5.585-5.585 12.102-7.447 18.618-7.447s13.964 2.793 18.618 7.447l92.16 92.16v-52.131l-63.302-63.302c-10.24-10.24-10.24-26.996 0-37.236 5.585-5.585 12.102-7.447 18.618-7.447s13.964 2.793 18.618 7.447l26.065 26.065v-80.058c0-14.895 12.102-26.065 26.996-26.065s26.996 12.102 26.996 26.065v80.058l26.065-26.065c5.585-5.585 12.102-7.447 18.618-7.447s13.964 2.793 18.618 7.447c10.24 10.24 10.24 26.996 0 37.236l-63.302 63.302v52.131l92.16-92.16c5.585-5.585 12.102-7.447 18.618-7.447s13.964 2.793 18.618 7.447c10.24 10.24 10.24 26.996 0 37.236l-130.327 130.327v109.847l94.953-54.924 47.476-177.804c2.793-12.102 13.964-19.549 26.065-19.549 1.862 0 4.655 0 6.516 0.931 13.964 3.724 22.342 18.618 18.618 32.582l-33.513 126.604 45.615-26.065 23.273-86.575c2.793-12.102 13.964-19.549 26.065-19.549 1.862 0 4.655 0 6.516 0.931 13.964 3.724 22.342 18.618 18.618 32.582l-9.309 35.375 69.818-40.029c3.724-2.793 8.378-3.724 13.033-3.724 9.309 0 17.687 4.655 23.273 13.033 7.447 12.102 2.793 27.927-9.309 35.375z" />
<glyph unicode="&#xe94f;" glyph-name="sort" d="M292.305 852.015l-245.76-327.68h160.116v-480.349h171.287v480.349h160.116l-245.76 327.68zM817.338 371.665v480.349h-170.356v-480.349h-160.116l245.76-327.68 244.829 327.68h-160.116z" />
<glyph unicode="&#xe950;" glyph-name="spot" d="M512 960c-178.735 0-323.956-145.222-323.956-323.956 0-266.24 255.069-294.167 323.956-700.044 68.887 404.945 323.956 432.873 323.956 700.044 0 178.735-145.222 323.956-323.956 323.956zM512 527.127c-64.233 0-116.364 52.131-116.364 116.364s52.131 116.364 116.364 116.364 116.364-52.131 116.364-116.364-52.131-116.364-116.364-116.364z" />
<glyph unicode="&#xe951;" glyph-name="spring" d="M902.051 228.305c0 0.931 0 1.862-0.931 2.793-20.48 72.611-80.058 120.087-135.913 149.876-14.895 8.378-31.651 14.895-48.407 21.411 21.411 1.862 41.891 4.655 62.371 8.378 119.156 26.065 187.113 94.953 196.422 201.076 0 0.931 0 1.862 0 2.793 0 3.724-2.793 8.378-6.516 9.309 0 0-32.582 7.447-45.615 10.24 4.655 12.102 17.687 42.822 17.687 42.822 0 0.931 0.931 1.862 0.931 2.793 0 2.793-0.931 6.516-3.724 8.378-121.018 71.68-223.418 12.102-288.582-50.269-12.102-12.102-24.204-25.135-35.375-39.098 4.655 20.48 8.378 40.96 11.171 61.44 0 0.931 0 1.862 0 3.724 3.724 35.375 1.862 67.956-5.585 96.815 0 1.862-0.931 4.655-0.931 6.516-0.931 1.862-0.931 3.724-1.862 6.516-3.724 13.033-8.378 25.135-13.964 37.236-0.931 1.862-1.862 3.724-2.793 6.516-0.931 1.862-1.862 3.724-3.724 5.585-22.342 39.098-57.716 68.887-105.193 88.436-3.724 1.862-8.378 0-10.24-3.724 0 0-16.756-27.927-24.204-40.029-10.24 8.378-35.375 29.789-35.375 29.789-2.793 2.793-7.447 2.793-11.171 0-70.749-61.44-82.851-133.12-71.68-198.284 0-2.793 0.931-4.655 0.931-7.447 0-1.862 0.931-4.655 1.862-6.516 2.793-13.964 7.447-26.996 12.102-39.098 0.931-1.862 1.862-4.655 1.862-6.516 0.931-1.862 1.862-3.724 2.793-6.516 3.724-8.378 7.447-17.687 11.171-25.135 7.447-14.895 16.756-30.72 26.065-45.615-17.687 11.171-36.305 20.48-54.924 28.858-9.309 4.655-18.618 7.447-27.927 11.171-2.793 0.931-5.585 1.862-7.447 2.793-2.793 0.931-4.655 1.862-7.447 2.793-18.618 5.585-36.305 9.309-53.062 10.24-3.724 0-6.516 0.931-10.24 0.931s-6.516 0-10.24 0c-63.302 0.931-118.225-25.135-162.909-77.265-0.931-0.931-1.862-2.793-1.862-4.655s0-4.655 1.862-6.516c0 0 16.756-19.549 26.996-31.651 0.931-0.931 2.793-2.793 3.724-3.724-5.585-0.931-13.033-5.585-20.48-10.24-10.24-6.516-20.48-13.033-20.48-13.033-1.862-1.862-3.724-3.724-3.724-6.516 0-0.931 0-2.793 0.931-3.724 0-0.931 0-0.931 0.931-0.931 0.931-1.862 1.862-4.655 2.793-6.516s1.862-4.655 2.793-6.516c6.516-13.033 13.964-25.135 21.411-35.375 0.931-1.862 2.793-3.724 3.724-5.585s2.793-3.724 3.724-5.585c61.44-87.505 173.149-76.335 226.211-68.887 16.756 2.793 34.444 6.516 51.2 10.24-15.825-13.964-31.651-27.927-44.684-43.753-81.92-91.229-95.884-188.975-39.098-281.135 1.862-3.724 6.516-4.655 10.24-3.724 0 0 30.72 13.033 42.822 17.687 2.793-13.033 11.171-44.684 11.171-44.684 0.931-3.724 4.655-6.516 9.309-6.516 140.567 13.033 188.044 121.949 203.869 210.385 1.862 11.171 3.724 23.273 4.655 35.375 0.931 5.585 0.931 11.171 0.931 16.756 8.378-19.549 16.756-38.167 27.927-56.785 43.753-76.335 102.4-119.156 169.425-128.465 0.931 0 0.931 0 1.862 0s1.862 0 2.793 0c0.931 0 1.862 0 1.862 0 9.309-0.931 17.687-0.931 26.996-0.931 0.931 0 1.862 0 2.793 0s1.862 0 2.793 0c4.655 0 8.378 0 13.033 0.931 1.862 0 3.724 0 6.516 0.931 1.862 0 3.724 0 5.585 0.931 7.447 0.931 13.964 2.793 21.411 3.724 3.724 0.931 6.516 3.724 6.516 7.447 0 0.931 0 0.931 0 1.862 0 0 0 0 0 0.931 0 0 0 1.862 0 2.793s0 1.862 0 2.793c-0.931 6.516-1.862 16.756-1.862 26.065 0 0.931 0 1.862 0 3.724 0 0.931 0 1.862 0 2.793 0 1.862 0 2.793 0 3.724s0 1.862 0 2.793c2.793 0 7.447-0.931 12.102-0.931 14.895-0.931 34.444-2.793 34.444-2.793 3.724 0 7.447 2.793 8.378 6.516 0.931 2.793 0.931 5.585 1.862 8.378 0 1.862 0.931 3.724 0.931 5.585s0.931 3.724 0.931 5.585c0.931 4.655 0.931 9.309 1.862 13.964 2.793 25.135 0 48.407-4.655 69.818-1.862 1.862-1.862 2.793-1.862 3.724z" />
<glyph unicode="&#xe952;" glyph-name="stair" d="M977.455 859.462h-269.964v-173.149h-174.080v-187.113h-156.393v-173.149h-174.080v-187.113h-156.393v-102.4h259.724v186.182h173.149v174.080h157.324v186.182h173.149v174.080h167.564z" />
<glyph unicode="&#xe953;" glyph-name="star" d="M512 891.113l142.429-294.167 323.025-44.684-235.52-226.211 57.716-321.164-287.651 154.531-287.651-153.6 57.716 321.164-235.52 225.28 323.025 44.684 142.429 294.167z" />
</font>
</defs>
</svg>
